<?xml version="1.0" encoding="UTF-8" standalone="no"?>
<svg
   xmlns:dc="http://purl.org/dc/elements/1.1/"
   xmlns:cc="http://creativecommons.org/ns#"
   xmlns:rdf="http://www.w3.org/1999/02/22-rdf-syntax-ns#"
   xmlns:svg="http://www.w3.org/2000/svg"
   xmlns="http://www.w3.org/2000/svg"
   xmlns:sodipodi="http://sodipodi.sourceforge.net/DTD/sodipodi-0.dtd"
   xmlns:inkscape="http://www.inkscape.org/namespaces/inkscape"
   width="276mm"
   height="143mm"
   viewBox="0 0 276 143"
   version="1.1"
   preserveAspectRatio="xMidYMid meet"
   id="svg9"
   sodipodi:docname="box-new-new.svg"
   inkscape:version="1.0.2 (e86c870879, 2021-01-15, custom)">
  <metadata
     id="metadata15">
    <rdf:RDF>
      <cc:Work
         rdf:about="">
        <dc:format>image/svg+xml</dc:format>
        <dc:type
           rdf:resource="http://purl.org/dc/dcmitype/StillImage" />
      </cc:Work>
    </rdf:RDF>
  </metadata>
  <defs
     id="defs13" />
  <sodipodi:namedview
     pagecolor="#ffffff"
     bordercolor="#666666"
     borderopacity="1"
     objecttolerance="10"
     gridtolerance="10"
     guidetolerance="10"
     inkscape:pageopacity="0"
     inkscape:pageshadow="2"
     inkscape:window-width="1914"
     inkscape:window-height="1024"
     id="namedview11"
     showgrid="false"
     inkscape:zoom="14.541194"
     inkscape:cx="16.908161"
     inkscape:cy="91.563604"
     inkscape:window-x="0"
     inkscape:window-y="0"
     inkscape:window-maximized="1"
     inkscape:current-layer="svg9" />
  <g
     id="svgGroup"
     stroke-linecap="round"
     fill-rule="evenodd"
     font-size="9pt"
     stroke="#000"
     stroke-width="0.25mm"
     fill="none"
     style="stroke:#000;stroke-width:0.25mm;fill:none">
    <path
       d="M 0 73 L 0 96.375 L 4 96.375 L 4 119.625 L 0 119.625 L 0 143 L 15.125 143 L 15.125 139 L 38.375 139 L 38.375 143 L 61.625 143 L 61.625 139 L 84.875 139 L 84.875 143 L 100 143 L 100 119.625 L 96 119.625 L 96 96.375 L 100 96.375 L 100 73 L 84.875 73 L 84.875 77 L 61.625 77 L 61.625 73 L 38.375 73 L 38.375 77 L 15.125 77 L 15.125 73 L 0 73 Z"
       id="front_outsideCutPath"
       stroke="#FF0000"
       stroke-width="1"
       style="stroke:#FF0000;stroke-width:1"
       vector-effect="non-scaling-stroke" />
    <path
       d="M 107 73 L 107 96.375 L 103 96.375 L 103 119.625 L 107 119.625 L 107 143 L 126.375 143 L 126.375 139 L 149.625 139 L 149.625 143 L 169 143 L 169 119.625 L 173 119.625 L 173 96.375 L 169 96.375 L 169 73 L 149.625 73 L 149.625 77 L 126.375 77 L 126.375 73 L 107 73 Z"
       id="left_outsideCutPath"
       stroke="#FF0000"
       stroke-width="1"
       style="stroke:#FF0000;stroke-width:1"
       vector-effect="non-scaling-stroke" />
    <path
       d="M 180 77 L 180 96.375 L 176 96.375 L 176 119.625 L 180 119.625 L 180 139 L 191.125 139 L 191.125 143 L 214.375 143 L 214.375 139 L 237.625 139 L 237.625 143 L 260.875 143 L 260.875 139 L 272 139 L 272 119.625 L 276 119.625 L 276 96.375 L 272 96.375 L 272 77 L 260.875 77 L 260.875 73 L 237.625 73 L 237.625 77 L 214.375 77 L 214.375 73 L 191.125 73 L 191.125 77 L 180 77 Z"
       id="top_outsideCutPath"
       stroke="#FF0000"
       stroke-width="1"
       style="stroke:#FF0000;stroke-width:1"
       vector-effect="non-scaling-stroke" />
    <path
       d="M 0 0 L 0 23.375 L 4 23.375 L 4 46.625 L 0 46.625 L 0 70 L 15.125 70 L 15.125 66 L 38.375 66 L 38.375 70 L 61.625 70 L 61.625 66 L 84.875 66 L 84.875 70 L 100 70 L 100 46.625 L 96 46.625 L 96 23.375 L 100 23.375 L 100 0 L 84.875 0 L 84.875 4 L 61.625 4 L 61.625 0 L 38.375 0 L 38.375 4 L 15.125 4 L 15.125 0 L 0 0 Z"
       id="back_outsideCutPath"
       stroke="#FF0000"
       stroke-width="1"
       style="stroke:#FF0000;stroke-width:1"
       vector-effect="non-scaling-stroke" />
    <path
       d="M 107 0 L 107 23.375 L 103 23.375 L 103 46.625 L 107 46.625 L 107 70 L 126.375 70 L 126.375 66 L 149.625 66 L 149.625 70 L 169 70 L 169 46.625 L 173 46.625 L 173 23.375 L 169 23.375 L 169 0 L 149.625 0 L 149.625 4 L 126.375 4 L 126.375 0 L 107 0 Z"
       id="right_outsideCutPath"
       stroke="#FF0000"
       stroke-width="1"
       style="stroke:#FF0000;stroke-width:1"
       vector-effect="non-scaling-stroke" />
    <path
       d="M 180 4 L 180 23.375 L 176 23.375 L 176 46.625 L 180 46.625 L 180 66 L 191.125 66 L 191.125 70 L 214.375 70 L 214.375 66 L 237.625 66 L 237.625 70 L 260.875 70 L 260.875 66 L 272 66 L 272 46.625 L 276 46.625 L 276 23.375 L 272 23.375 L 272 4 L 260.875 4 L 260.875 0 L 237.625 0 L 237.625 4 L 214.375 4 L 214.375 0 L 191.125 0 L 191.125 4 L 180 4 Z"
       id="bottom_outsideCutPath"
       stroke="#FF0000"
       stroke-width="1"
       style="stroke:#FF0000;stroke-width:1"
       vector-effect="non-scaling-stroke" />
  </g>
  <rect
     style="fill:none;fill-rule:evenodd;stroke:#000000;stroke-width:0.264583;stroke-opacity:1"
     id="rect1924"
     width="71.199997"
     height="25"
     x="9.3310366"
     y="11.359554" />
  <circle
     style="fill:none;stroke:#000000;stroke-width:0.129438;stroke-opacity:1"
     id="path2752"
     cx="13.139"
     cy="45.463848"
     r="2.9352813" />
  <rect
     style="fill:none;stroke:#000000;stroke-width:0.176559"
     id="rect840"
     width="7.5008006"
     height="1.7525082"
     x="35.610954"
     y="47.44437" />
  <rect
     style="fill:none;stroke:#000000;stroke-width:0.264583"
     id="rect855"
     width="13"
     height="20.4"
     x="257.52396"
     y="10.75532" />
  <rect
     style="fill:none;stroke:#000000;stroke-width:0.264583"
     id="rect857"
     width="17.5"
     height="17.5"
     x="239.25159"
     y="6.4974442" />
</svg>
