<?xml version="1.0" encoding="UTF-8" standalone="no"?>
<svg
   width="286mm"
   height="143mm"
   viewBox="0 0 286 143"
   version="1.1"
   preserveAspectRatio="xMidYMid meet"
   id="svg9"
   sodipodi:docname="box-new-new-new.svg"
   inkscape:version="1.1.1 (3bf5ae0d25, 2021-09-20, custom)"
   xmlns:inkscape="http://www.inkscape.org/namespaces/inkscape"
   xmlns:sodipodi="http://sodipodi.sourceforge.net/DTD/sodipodi-0.dtd"
   xmlns="http://www.w3.org/2000/svg"
   xmlns:svg="http://www.w3.org/2000/svg"
   xmlns:rdf="http://www.w3.org/1999/02/22-rdf-syntax-ns#"
   xmlns:cc="http://creativecommons.org/ns#"
   xmlns:dc="http://purl.org/dc/elements/1.1/">
  <metadata
     id="metadata15">
    <rdf:RDF>
      <cc:Work
         rdf:about="">
        <dc:format>image/svg+xml</dc:format>
        <dc:type
           rdf:resource="http://purl.org/dc/dcmitype/StillImage" />
        <dc:title />
      </cc:Work>
    </rdf:RDF>
  </metadata>
  <defs
     id="defs13" />
  <sodipodi:namedview
     pagecolor="#ffffff"
     bordercolor="#666666"
     borderopacity="1"
     objecttolerance="10"
     gridtolerance="10"
     guidetolerance="10"
     inkscape:pageopacity="0"
     inkscape:pageshadow="2"
     inkscape:window-width="1920"
     inkscape:window-height="1080"
     id="namedview11"
     showgrid="false"
     inkscape:zoom="1.7827279"
     inkscape:cx="758.66878"
     inkscape:cy="169.12284"
     inkscape:window-x="0"
     inkscape:window-y="0"
     inkscape:window-maximized="1"
     inkscape:current-layer="svg9"
     inkscape:pagecheckerboard="0"
     inkscape:document-units="mm" />
  <g
     id="svgGroup"
     stroke-linecap="round"
     fill-rule="evenodd"
     font-size="9pt"
     stroke="#000"
     stroke-width="0.25mm"
     fill="none"
     style="stroke:#000;stroke-width:0.25mm;fill:none">
    <path
       d="M 0 73 L 0 96.375 L 4 96.375 L 4 119.625 L 0 119.625 L 0 143 L 17.625 143 L 17.625 139 L 40.875 139 L 40.875 143 L 64.125 143 L 64.125 139 L 87.375 139 L 87.375 143 L 105 143 L 105 119.625 L 101 119.625 L 101 96.375 L 105 96.375 L 105 73 L 87.375 73 L 87.375 77 L 64.125 77 L 64.125 73 L 40.875 73 L 40.875 77 L 17.625 77 L 17.625 73 L 0 73 Z"
       id="front_outsideCutPath"
       stroke="#FF0000"
       stroke-width="1"
       style="stroke:#FF0000;stroke-width:1"
       vector-effect="non-scaling-stroke" />
    <path
       d="M 112 73 L 112 96.375 L 108 96.375 L 108 119.625 L 112 119.625 L 112 143 L 131.375 143 L 131.375 139 L 154.625 139 L 154.625 143 L 174 143 L 174 119.625 L 178 119.625 L 178 96.375 L 174 96.375 L 174 73 L 154.625 73 L 154.625 77 L 131.375 77 L 131.375 73 L 112 73 Z"
       id="left_outsideCutPath"
       stroke="#FF0000"
       stroke-width="1"
       style="stroke:#FF0000;stroke-width:1"
       vector-effect="non-scaling-stroke" />
    <path
       d="M 185 77 L 185 96.375 L 181 96.375 L 181 119.625 L 185 119.625 L 185 139 L 198.625 139 L 198.625 143 L 221.875 143 L 221.875 139 L 245.125 139 L 245.125 143 L 268.375 143 L 268.375 139 L 282 139 L 282 119.625 L 286 119.625 L 286 96.375 L 282 96.375 L 282 77 L 268.375 77 L 268.375 73 L 245.125 73 L 245.125 77 L 221.875 77 L 221.875 73 L 198.625 73 L 198.625 77 L 185 77 Z"
       id="top_outsideCutPath"
       stroke="#FF0000"
       stroke-width="1"
       style="stroke:#FF0000;stroke-width:1"
       vector-effect="non-scaling-stroke" />
    <path
       d="M 0 0 L 0 23.375 L 4 23.375 L 4 46.625 L 0 46.625 L 0 70 L 17.625 70 L 17.625 66 L 40.875 66 L 40.875 70 L 64.125 70 L 64.125 66 L 87.375 66 L 87.375 70 L 105 70 L 105 46.625 L 101 46.625 L 101 23.375 L 105 23.375 L 105 0 L 87.375 0 L 87.375 4 L 64.125 4 L 64.125 0 L 40.875 0 L 40.875 4 L 17.625 4 L 17.625 0 L 0 0 Z"
       id="back_outsideCutPath"
       stroke="#FF0000"
       stroke-width="1"
       style="stroke:#FF0000;stroke-width:1"
       vector-effect="non-scaling-stroke" />
    <path
       d="M 112 0 L 112 23.375 L 108 23.375 L 108 46.625 L 112 46.625 L 112 70 L 131.375 70 L 131.375 66 L 154.625 66 L 154.625 70 L 174 70 L 174 46.625 L 178 46.625 L 178 23.375 L 174 23.375 L 174 0 L 154.625 0 L 154.625 4 L 131.375 4 L 131.375 0 L 112 0 Z"
       id="right_outsideCutPath"
       stroke="#FF0000"
       stroke-width="1"
       style="stroke:#FF0000;stroke-width:1"
       vector-effect="non-scaling-stroke" />
    <path
       d="M 185 4 L 185 23.375 L 181 23.375 L 181 46.625 L 185 46.625 L 185 66 L 198.625 66 L 198.625 70 L 221.875 70 L 221.875 66 L 245.125 66 L 245.125 70 L 268.375 70 L 268.375 66 L 282 66 L 282 46.625 L 286 46.625 L 286 23.375 L 282 23.375 L 282 4 L 268.375 4 L 268.375 0 L 245.125 0 L 245.125 4 L 221.875 4 L 221.875 0 L 198.625 0 L 198.625 4 L 185 4 Z"
       id="bottom_outsideCutPath"
       stroke="#FF0000"
       stroke-width="1"
       style="stroke:#FF0000;stroke-width:1"
       vector-effect="non-scaling-stroke" />
  </g>
  <rect
     style="fill:none;fill-rule:evenodd;stroke:#000000;stroke-width:0.264583;stroke-opacity:1"
     id="rect1924"
     width="71.199997"
     height="25"
     x="9.6754313"
     y="11.297709" />
  <circle
     style="fill:none;stroke:#000000;stroke-width:0.129438;stroke-opacity:1"
     id="path2752"
     cx="19.304222"
     cy="46.499908"
     r="2.9352813" />
  <rect
     style="fill:none;stroke:#000000;stroke-width:0.264583"
     id="rect855"
     width="13"
     height="20.4"
     x="265.11609"
     y="7.7675481" />
  <rect
     style="fill:none;stroke:#000000;stroke-width:0.264583"
     id="rect867"
     width="12.000001"
     height="9.8000002"
     x="87.043602"
     y="25.296574" />
  <rect
     style="fill:none;stroke:#000000;stroke-width:0.264583"
     id="rect867-3"
     width="12.000001"
     height="9.8000002"
     x="87.043602"
     y="11.263236" />
  <rect
     style="fill:none;stroke:#000000;stroke-width:0.264583"
     id="rect867-3-6"
     width="12.000001"
     height="9.8000002"
     x="87.043602"
     y="39.32991" />
  <circle
     style="fill:none;stroke:#000000;stroke-width:0.264583"
     id="path909"
     cx="93.043602"
     cy="57.968533"
     r="3.4500003" />
</svg>
