<?xml version="1.0" encoding="UTF-8" standalone="no"?>
<svg
   xmlns:dc="http://purl.org/dc/elements/1.1/"
   xmlns:cc="http://creativecommons.org/ns#"
   xmlns:rdf="http://www.w3.org/1999/02/22-rdf-syntax-ns#"
   xmlns:svg="http://www.w3.org/2000/svg"
   xmlns="http://www.w3.org/2000/svg"
   xmlns:sodipodi="http://sodipodi.sourceforge.net/DTD/sodipodi-0.dtd"
   xmlns:inkscape="http://www.inkscape.org/namespaces/inkscape"
   width="276mm"
   height="143mm"
   viewBox="0 0 276 143"
   version="1.1"
   preserveAspectRatio="xMidYMid meet"
   id="svg899"
   sodipodi:docname="box-new.svg"
   inkscape:version="1.0.2 (e86c870879, 2021-01-15, custom)">
  <metadata
     id="metadata905">
    <rdf:RDF>
      <cc:Work
         rdf:about="">
        <dc:format>image/svg+xml</dc:format>
        <dc:type
           rdf:resource="http://purl.org/dc/dcmitype/StillImage" />
      </cc:Work>
    </rdf:RDF>
  </metadata>
  <defs
     id="defs903" />
  <sodipodi:namedview
     pagecolor="#ffffff"
     bordercolor="#666666"
     borderopacity="1"
     objecttolerance="10"
     gridtolerance="10"
     guidetolerance="10"
     inkscape:pageopacity="0"
     inkscape:pageshadow="2"
     inkscape:window-width="1914"
     inkscape:window-height="1024"
     id="namedview901"
     showgrid="false"
     inkscape:zoom="2.2774943"
     inkscape:cx="125.5032"
     inkscape:cy="124.14926"
     inkscape:window-x="0"
     inkscape:window-y="0"
     inkscape:window-maximized="1"
     inkscape:current-layer="svg899" />
  <g
     id="svgGroup"
     stroke-linecap="round"
     fill-rule="evenodd"
     font-size="9pt"
     stroke="#000"
     stroke-width="0.25mm"
     fill="none"
     style="stroke:#000;stroke-width:0.25mm;fill:none">
    <path
       d="M 0 78 L 0 98.875 L 4 98.875 L 4 122.125 L 0 122.125 L 0 143 L 15.125 143 L 15.125 139 L 38.375 139 L 38.375 143 L 61.625 143 L 61.625 139 L 84.875 139 L 84.875 143 L 100 143 L 100 122.125 L 96 122.125 L 96 98.875 L 100 98.875 L 100 78 L 84.875 78 L 84.875 82 L 61.625 82 L 61.625 78 L 38.375 78 L 38.375 82 L 15.125 82 L 15.125 78 L 0 78 Z"
       id="front_outsideCutPath"
       stroke="#FF0000"
       stroke-width="1"
       style="stroke:#FF0000;stroke-width:1"
       vector-effect="non-scaling-stroke" />
    <path
       d="M 107 78 L 107 98.875 L 103 98.875 L 103 122.125 L 107 122.125 L 107 143 L 126.375 143 L 126.375 139 L 149.625 139 L 149.625 143 L 169 143 L 169 122.125 L 173 122.125 L 173 98.875 L 169 98.875 L 169 78 L 149.625 78 L 149.625 82 L 126.375 82 L 126.375 78 L 107 78 Z"
       id="left_outsideCutPath"
       stroke="#FF0000"
       stroke-width="1"
       style="stroke:#FF0000;stroke-width:1"
       vector-effect="non-scaling-stroke" />
    <path
       d="M 180 77 L 180 96.375 L 176 96.375 L 176 119.625 L 180 119.625 L 180 139 L 191.125 139 L 191.125 143 L 214.375 143 L 214.375 139 L 237.625 139 L 237.625 143 L 260.875 143 L 260.875 139 L 272 139 L 272 119.625 L 276 119.625 L 276 96.375 L 272 96.375 L 272 77 L 260.875 77 L 260.875 73 L 237.625 73 L 237.625 77 L 214.375 77 L 214.375 73 L 191.125 73 L 191.125 77 L 180 77 Z"
       id="top_outsideCutPath"
       stroke="#FF0000"
       stroke-width="1"
       style="stroke:#FF0000;stroke-width:1"
       vector-effect="non-scaling-stroke" />
    <path
       d="M 0 10 L 0 30.875 L 4 30.875 L 4 54.125 L 0 54.125 L 0 75 L 15.125 75 L 15.125 71 L 38.375 71 L 38.375 75 L 61.625 75 L 61.625 71 L 84.875 71 L 84.875 75 L 100 75 L 100 54.125 L 96 54.125 L 96 30.875 L 100 30.875 L 100 10 L 84.875 10 L 84.875 14 L 61.625 14 L 61.625 10 L 38.375 10 L 38.375 14 L 15.125 14 L 15.125 10 L 0 10 Z"
       id="back_outsideCutPath"
       stroke="#FF0000"
       stroke-width="1"
       style="stroke:#FF0000;stroke-width:1"
       vector-effect="non-scaling-stroke" />
    <path
       d="M 107 10 L 107 30.875 L 103 30.875 L 103 54.125 L 107 54.125 L 107 75 L 126.375 75 L 126.375 71 L 149.625 71 L 149.625 75 L 169 75 L 169 54.125 L 173 54.125 L 173 30.875 L 169 30.875 L 169 10 L 149.625 10 L 149.625 14 L 126.375 14 L 126.375 10 L 107 10 Z"
       id="right_outsideCutPath"
       stroke="#FF0000"
       stroke-width="1"
       style="stroke:#FF0000;stroke-width:1"
       vector-effect="non-scaling-stroke" />
    <path
       d="M 180 4 L 180 23.375 L 176 23.375 L 176 46.625 L 180 46.625 L 180 66 L 191.125 66 L 191.125 70 L 214.375 70 L 214.375 66 L 237.625 66 L 237.625 70 L 260.875 70 L 260.875 66 L 272 66 L 272 46.625 L 276 46.625 L 276 23.375 L 272 23.375 L 272 4 L 260.875 4 L 260.875 0 L 237.625 0 L 237.625 4 L 214.375 4 L 214.375 0 L 191.125 0 L 191.125 4 L 180 4 Z"
       id="bottom_outsideCutPath"
       stroke="#FF0000"
       stroke-width="1"
       style="stroke:#FF0000;stroke-width:1"
       vector-effect="non-scaling-stroke" />
  </g>
  <rect
     style="fill:none;fill-rule:evenodd;stroke:#000000;stroke-width:0.264583;stroke-opacity:1"
     id="rect1924"
     width="71.199997"
     height="25"
     x="14.429415"
     y="21.095703" />
  <circle
     style="fill:none;stroke:#000000;stroke-width:0.129438;stroke-opacity:1"
     id="path2752"
     cx="16.420416"
     cy="55.200001"
     r="2.9352813" />
  <rect
     style="fill:none;stroke:#000000;stroke-width:0.176559"
     id="rect840"
     width="7.5008006"
     height="1.7525082"
     x="35.417667"
     y="57.180523" />
</svg>
