<svg width="276mm" height="143mm" viewBox="0 0 276 143" xmlns="http://www.w3.org/2000/svg" version="1.1" preserveAspectRatio="xMidYMid meet"><g id="svgGroup" stroke-linecap="round" fill-rule="evenodd" font-size="9pt" stroke="#000" stroke-width="0.25mm" fill="none" style="stroke:#000;stroke-width:0.25mm;fill:none"><path d="M 0 83 L 0 102.5 L 4 102.5 L 4 123.5 L 0 123.5 L 0 143 L 18.5 143 L 18.5 139 L 39.5 139 L 39.5 143 L 60.5 143 L 60.5 139 L 81.5 139 L 81.5 143 L 100 143 L 100 123.5 L 96 123.5 L 96 102.5 L 100 102.5 L 100 83 L 81.5 83 L 81.5 87 L 60.5 87 L 60.5 83 L 39.5 83 L 39.5 87 L 18.5 87 L 18.5 83 L 0 83 Z" id="front_outsideCutPath" stroke="#FF0000" stroke-width="1" style="stroke:#FF0000;stroke-width:1" vector-effect="non-scaling-stroke"/><path d="M 107 83 L 107 102.5 L 103 102.5 L 103 123.5 L 107 123.5 L 107 143 L 127.5 143 L 127.5 139 L 148.5 139 L 148.5 143 L 169 143 L 169 123.5 L 173 123.5 L 173 102.5 L 169 102.5 L 169 83 L 148.5 83 L 148.5 87 L 127.5 87 L 127.5 83 L 107 83 Z" id="left_outsideCutPath" stroke="#FF0000" stroke-width="1" style="stroke:#FF0000;stroke-width:1" vector-effect="non-scaling-stroke"/><path d="M 180 77 L 180 97.5 L 176 97.5 L 176 118.5 L 180 118.5 L 180 139 L 194.5 139 L 194.5 143 L 215.5 143 L 215.5 139 L 236.5 139 L 236.5 143 L 257.5 143 L 257.5 139 L 272 139 L 272 118.5 L 276 118.5 L 276 97.5 L 272 97.5 L 272 77 L 257.5 77 L 257.5 73 L 236.5 73 L 236.5 77 L 215.5 77 L 215.5 73 L 194.5 73 L 194.5 77 L 180 77 Z" id="top_outsideCutPath" stroke="#FF0000" stroke-width="1" style="stroke:#FF0000;stroke-width:1" vector-effect="non-scaling-stroke"/><path d="M 0 20 L 0 39.5 L 4 39.5 L 4 60.5 L 0 60.5 L 0 80 L 18.5 80 L 18.5 76 L 39.5 76 L 39.5 80 L 60.5 80 L 60.5 76 L 81.5 76 L 81.5 80 L 100 80 L 100 60.5 L 96 60.5 L 96 39.5 L 100 39.5 L 100 20 L 81.5 20 L 81.5 24 L 60.5 24 L 60.5 20 L 39.5 20 L 39.5 24 L 18.5 24 L 18.5 20 L 0 20 Z" id="back_outsideCutPath" stroke="#FF0000" stroke-width="1" style="stroke:#FF0000;stroke-width:1" vector-effect="non-scaling-stroke"/><path d="M 107 20 L 107 39.5 L 103 39.5 L 103 60.5 L 107 60.5 L 107 80 L 127.5 80 L 127.5 76 L 148.5 76 L 148.5 80 L 169 80 L 169 60.5 L 173 60.5 L 173 39.5 L 169 39.5 L 169 20 L 148.5 20 L 148.5 24 L 127.5 24 L 127.5 20 L 107 20 Z" id="right_outsideCutPath" stroke="#FF0000" stroke-width="1" style="stroke:#FF0000;stroke-width:1" vector-effect="non-scaling-stroke"/><path d="M 180 4 L 180 24.5 L 176 24.5 L 176 45.5 L 180 45.5 L 180 66 L 194.5 66 L 194.5 70 L 215.5 70 L 215.5 66 L 236.5 66 L 236.5 70 L 257.5 70 L 257.5 66 L 272 66 L 272 45.5 L 276 45.5 L 276 24.5 L 272 24.5 L 272 4 L 257.5 4 L 257.5 0 L 236.5 0 L 236.5 4 L 215.5 4 L 215.5 0 L 194.5 0 L 194.5 4 L 180 4 Z" id="bottom_outsideCutPath" stroke="#FF0000" stroke-width="1" style="stroke:#FF0000;stroke-width:1" vector-effect="non-scaling-stroke"/></g></svg>