<?xml version="1.0" encoding="UTF-8" standalone="no"?>
<svg
   width="250mm"
   height="127mm"
   viewBox="0 0 250 127"
   version="1.1"
   preserveAspectRatio="xMidYMid meet"
   id="svg15"
   sodipodi:docname="box.svg"
   inkscape:version="1.2.2 (b0a8486541, 2022-12-01)"
   xmlns:inkscape="http://www.inkscape.org/namespaces/inkscape"
   xmlns:sodipodi="http://sodipodi.sourceforge.net/DTD/sodipodi-0.dtd"
   xmlns="http://www.w3.org/2000/svg"
   xmlns:svg="http://www.w3.org/2000/svg">
  <defs
     id="defs19" />
  <sodipodi:namedview
     id="namedview17"
     pagecolor="#ffffff"
     bordercolor="#999999"
     borderopacity="1"
     inkscape:showpageshadow="0"
     inkscape:pageopacity="0"
     inkscape:pagecheckerboard="0"
     inkscape:deskcolor="#d1d1d1"
     inkscape:document-units="mm"
     showgrid="false"
     inkscape:zoom="2.4555622"
     inkscape:cx="407.64596"
     inkscape:cy="370.99448"
     inkscape:window-width="1914"
     inkscape:window-height="1033"
     inkscape:window-x="0"
     inkscape:window-y="0"
     inkscape:window-maximized="1"
     inkscape:current-layer="svg15" />
  <g
     id="svgGroup"
     stroke-linecap="round"
     fill-rule="evenodd"
     font-size="9pt"
     stroke="#000"
     stroke-width="0.25mm"
     fill="none"
     style="stroke:#000;stroke-width:0.25mm;fill:none">
    <path
       d="M 0 65 L 0 85.594 L 4.5 85.594 L 4.5 106.406 L 0 106.406 L 0 127 L 14.281 127 L 14.281 122.5 L 35.094 122.5 L 35.094 127 L 55.906 127 L 55.906 122.5 L 76.719 122.5 L 76.719 127 L 91 127 L 91 106.406 L 86.5 106.406 L 86.5 85.594 L 91 85.594 L 91 65 L 76.719 65 L 76.719 69.5 L 55.906 69.5 L 55.906 65 L 35.094 65 L 35.094 69.5 L 14.281 69.5 L 14.281 65 L 0 65 Z"
       id="front_outsideCutPath"
       stroke="#FF0000"
       stroke-width="0.1"
       style="stroke:#FF0000;stroke-width:0.1"
       vector-effect="non-scaling-stroke" />
    <path
       d="M 54.537 100.683 L 53.532 100.683 L 53.532 96.39 Q 53.532 95.873 53.381 95.523 A 1.196 1.196 0 0 0 53.162 95.179 A 1.133 1.133 0 0 0 52.697 94.883 Q 52.405 94.78 52.006 94.78 A 3.042 3.042 0 0 0 51.437 94.829 Q 50.821 94.947 50.48 95.343 A 1.643 1.643 0 0 0 50.194 95.842 Q 49.996 96.372 49.996 97.202 L 49.996 100.683 L 48.991 100.683 L 48.991 94.047 L 49.808 94.047 L 49.971 94.955 L 50.02 94.955 A 2.035 2.035 0 0 1 50.817 94.23 A 2.447 2.447 0 0 1 50.886 94.196 A 2.722 2.722 0 0 1 51.854 93.937 A 3.291 3.291 0 0 1 52.127 93.926 Q 52.922 93.926 53.456 94.18 A 1.806 1.806 0 0 1 53.931 94.504 Q 54.392 94.944 54.502 95.785 A 4.386 4.386 0 0 1 54.537 96.354 L 54.537 100.683 Z M 35.228 94.047 L 35.228 94.828 L 33.539 94.828 L 33.539 100.683 L 32.534 100.683 L 32.534 94.828 L 31.347 94.828 L 31.347 94.374 L 32.534 94.011 L 32.534 93.642 Q 32.534 91.53 34.127 91.241 A 3.055 3.055 0 0 1 34.671 91.195 A 3.237 3.237 0 0 1 35.129 91.23 Q 35.486 91.282 35.906 91.407 L 35.646 92.213 A 4.881 4.881 0 0 0 35.266 92.106 Q 34.923 92.025 34.653 92.025 A 1.355 1.355 0 0 0 34.326 92.062 A 0.87 0.87 0 0 0 33.811 92.403 A 1.163 1.163 0 0 0 33.658 92.713 Q 33.556 93.016 33.541 93.466 A 4.745 4.745 0 0 0 33.539 93.617 L 33.539 94.047 L 35.228 94.047 Z M 59.653 99.854 L 59.653 100.623 Q 59.505 100.694 59.232 100.743 A 3.758 3.758 0 0 1 59.171 100.753 A 4.356 4.356 0 0 1 58.887 100.79 Q 58.734 100.804 58.599 100.804 A 2.625 2.625 0 0 1 57.826 100.7 Q 56.975 100.438 56.753 99.514 A 3.159 3.159 0 0 1 56.674 98.776 L 56.674 94.828 L 55.723 94.828 L 55.723 94.344 L 56.674 93.926 L 57.098 92.509 L 57.679 92.509 L 57.679 94.047 L 59.604 94.047 L 59.604 94.828 L 57.679 94.828 L 57.679 98.734 Q 57.679 99.155 57.819 99.438 A 0.975 0.975 0 0 0 57.964 99.654 A 0.934 0.934 0 0 0 58.538 99.959 A 1.343 1.343 0 0 0 58.745 99.975 A 3.301 3.301 0 0 0 59.228 99.94 A 3.044 3.044 0 0 0 59.259 99.935 Q 59.508 99.896 59.653 99.854 Z M 40.26 93.999 L 40.12 94.931 Q 39.777 94.856 39.502 94.843 A 2.358 2.358 0 0 0 39.394 94.84 A 1.742 1.742 0 0 0 38.107 95.396 A 2.383 2.383 0 0 0 38.016 95.494 A 2.295 2.295 0 0 0 37.463 96.783 A 3.051 3.051 0 0 0 37.444 97.123 L 37.444 100.683 L 36.439 100.683 L 36.439 94.047 L 37.269 94.047 L 37.384 95.276 L 37.432 95.276 A 3.394 3.394 0 0 1 37.812 94.734 A 2.593 2.593 0 0 1 38.322 94.277 A 2.004 2.004 0 0 1 39.467 93.926 A 4.614 4.614 0 0 1 39.88 93.944 A 3.368 3.368 0 0 1 40.26 93.999 Z M 47.136 98.369 A 5.192 5.192 0 0 0 47.229 97.359 Q 47.229 95.779 46.408 94.853 A 2.631 2.631 0 0 0 45.187 94.065 A 3.377 3.377 0 0 0 44.195 93.926 Q 42.754 93.926 41.943 94.831 A 2.777 2.777 0 0 0 41.602 95.304 Q 41.339 95.762 41.223 96.35 A 5.219 5.219 0 0 0 41.132 97.359 A 5.028 5.028 0 0 0 41.195 98.174 A 3.718 3.718 0 0 0 41.507 99.188 A 3.304 3.304 0 0 0 41.58 99.331 A 2.721 2.721 0 0 0 42.573 100.386 Q 43.263 100.804 44.153 100.804 A 3.903 3.903 0 0 0 44.834 100.747 A 2.68 2.68 0 0 0 46.411 99.893 A 2.804 2.804 0 0 0 46.745 99.434 Q 47.017 98.968 47.136 98.369 Z M 42.173 97.359 A 5.09 5.09 0 0 0 42.221 98.086 Q 42.33 98.836 42.682 99.297 Q 43.19 99.963 44.177 99.963 A 2.335 2.335 0 0 0 44.793 99.886 A 1.625 1.625 0 0 0 45.676 99.3 A 2.158 2.158 0 0 0 46.012 98.645 Q 46.11 98.343 46.154 97.974 A 5.294 5.294 0 0 0 46.187 97.359 A 5.015 5.015 0 0 0 46.14 96.645 Q 46.087 96.281 45.977 95.986 A 2.069 2.069 0 0 0 45.676 95.437 Q 45.164 94.78 44.165 94.78 A 2.392 2.392 0 0 0 43.569 94.85 A 1.601 1.601 0 0 0 42.675 95.428 A 2.078 2.078 0 0 0 42.352 96.052 Q 42.173 96.592 42.173 97.359 Z"
       id="front_labelLayer"
       stroke="#777777"
       fill="#777777"
       style="stroke:#777777;fill:#777777"
       vector-effect="non-scaling-stroke" />
    <path
       d="M 98.5 65 L 98.5 85.594 L 94 85.594 L 94 106.406 L 98.5 106.406 L 98.5 127 L 114.594 127 L 114.594 122.5 L 135.406 122.5 L 135.406 127 L 151.5 127 L 151.5 106.406 L 156 106.406 L 156 85.594 L 151.5 85.594 L 151.5 65 L 135.406 65 L 135.406 69.5 L 114.594 69.5 L 114.594 65 L 98.5 65 Z"
       id="left_outsideCutPath"
       stroke="#FF0000"
       stroke-width="0.1"
       style="stroke:#FF0000;stroke-width:0.1"
       vector-effect="non-scaling-stroke" />
    <path
       d="M 129.411 94.047 L 129.411 94.828 L 127.722 94.828 L 127.722 100.683 L 126.717 100.683 L 126.717 94.828 L 125.53 94.828 L 125.53 94.374 L 126.717 94.011 L 126.717 93.642 Q 126.717 91.53 128.309 91.241 A 3.055 3.055 0 0 1 128.854 91.195 A 3.237 3.237 0 0 1 129.312 91.23 Q 129.668 91.282 130.089 91.407 L 129.829 92.213 A 4.881 4.881 0 0 0 129.449 92.106 Q 129.106 92.025 128.836 92.025 A 1.355 1.355 0 0 0 128.509 92.062 A 0.87 0.87 0 0 0 127.994 92.403 A 1.163 1.163 0 0 0 127.84 92.713 Q 127.738 93.016 127.724 93.466 A 4.745 4.745 0 0 0 127.722 93.617 L 127.722 94.047 L 129.411 94.047 Z M 124.706 96.911 L 124.706 97.547 L 120.135 97.547 A 4.034 4.034 0 0 0 120.206 98.222 Q 120.278 98.59 120.424 98.881 A 1.887 1.887 0 0 0 120.725 99.321 A 1.826 1.826 0 0 0 121.684 99.861 A 2.767 2.767 0 0 0 122.303 99.926 A 5.308 5.308 0 0 0 124.291 99.533 A 6.082 6.082 0 0 0 124.422 99.478 L 124.422 100.374 A 6.034 6.034 0 0 1 123.872 100.582 A 4.614 4.614 0 0 1 123.414 100.704 A 4.219 4.219 0 0 1 122.995 100.769 Q 122.789 100.791 122.556 100.799 A 8.189 8.189 0 0 1 122.266 100.804 A 3.906 3.906 0 0 1 121.289 100.689 A 2.766 2.766 0 0 1 119.944 99.908 Q 119.143 99.064 119.096 97.601 A 5.741 5.741 0 0 1 119.094 97.42 A 5.278 5.278 0 0 1 119.191 96.373 Q 119.32 95.737 119.619 95.243 A 2.976 2.976 0 0 1 119.884 94.871 A 2.576 2.576 0 0 1 121.761 93.934 A 3.553 3.553 0 0 1 122.006 93.926 Q 123.253 93.926 123.98 94.747 A 2.81 2.81 0 0 1 124.617 96.031 A 4.091 4.091 0 0 1 124.706 96.911 Z M 133.673 99.854 L 133.673 100.623 Q 133.526 100.694 133.252 100.743 A 3.758 3.758 0 0 1 133.192 100.753 A 4.356 4.356 0 0 1 132.908 100.79 Q 132.755 100.804 132.62 100.804 A 2.625 2.625 0 0 1 131.846 100.7 Q 130.996 100.438 130.773 99.514 A 3.159 3.159 0 0 1 130.694 98.776 L 130.694 94.828 L 129.744 94.828 L 129.744 94.344 L 130.694 93.926 L 131.118 92.509 L 131.7 92.509 L 131.7 94.047 L 133.625 94.047 L 133.625 94.828 L 131.7 94.828 L 131.7 98.734 Q 131.7 99.155 131.84 99.438 A 0.975 0.975 0 0 0 131.984 99.654 A 0.934 0.934 0 0 0 132.558 99.959 A 1.343 1.343 0 0 0 132.765 99.975 A 3.301 3.301 0 0 0 133.249 99.94 A 3.044 3.044 0 0 0 133.28 99.935 Q 133.528 99.896 133.673 99.854 Z M 117.332 91.262 L 117.332 100.683 L 116.327 100.683 L 116.327 91.262 L 117.332 91.262 Z M 120.159 96.729 L 123.629 96.729 Q 123.629 95.779 123.205 95.273 A 1.377 1.377 0 0 0 122.376 94.801 A 2.066 2.066 0 0 0 121.994 94.768 A 1.981 1.981 0 0 0 121.422 94.846 A 1.531 1.531 0 0 0 120.719 95.288 A 1.985 1.985 0 0 0 120.325 95.954 Q 120.225 96.228 120.179 96.558 A 3.797 3.797 0 0 0 120.159 96.729 Z"
       id="left_labelLayer"
       stroke="#777777"
       fill="#777777"
       style="stroke:#777777;fill:#777777"
       vector-effect="non-scaling-stroke" />
    <path
       d="M 163.5 69.5 L 163.5 85.594 L 159 85.594 L 159 106.406 L 163.5 106.406 L 163.5 122.5 L 173.281 122.5 L 173.281 127 L 194.094 127 L 194.094 122.5 L 214.906 122.5 L 214.906 127 L 235.719 127 L 235.719 122.5 L 245.5 122.5 L 245.5 106.406 L 250 106.406 L 250 85.594 L 245.5 85.594 L 245.5 69.5 L 235.719 69.5 L 235.719 65 L 214.906 65 L 214.906 69.5 L 194.094 69.5 L 194.094 65 L 173.281 65 L 173.281 69.5 L 163.5 69.5 Z"
       id="top_outsideCutPath"
       stroke="#FF0000"
       stroke-width="0.1"
       style="stroke:#FF0000;stroke-width:0.1"
       vector-effect="non-scaling-stroke" />
    <path
       d="M 208.956 97.744 L 208.884 97.744 A 9.512 9.512 0 0 1 208.946 98.447 A 7.97 7.97 0 0 1 208.956 98.846 L 208.956 101.576 L 207.951 101.576 L 207.951 91.962 L 208.769 91.962 L 208.908 92.87 L 208.956 92.87 A 2.705 2.705 0 0 1 209.347 92.425 A 2.092 2.092 0 0 1 209.858 92.083 A 2.517 2.517 0 0 1 210.58 91.872 A 3.258 3.258 0 0 1 211.039 91.84 Q 212.359 91.84 213.076 92.743 Q 213.663 93.48 213.77 94.703 A 6.545 6.545 0 0 1 213.794 95.273 A 5.893 5.893 0 0 1 213.716 96.265 Q 213.625 96.793 213.431 97.217 A 2.825 2.825 0 0 1 213.064 97.813 A 2.379 2.379 0 0 1 211.373 98.703 A 3.409 3.409 0 0 1 211.039 98.719 A 3.049 3.049 0 0 1 210.273 98.625 A 2.653 2.653 0 0 1 209.855 98.479 A 2.226 2.226 0 0 1 208.956 97.744 Z M 199.135 97.768 L 199.135 98.537 Q 198.988 98.608 198.714 98.657 A 3.758 3.758 0 0 1 198.654 98.667 A 4.356 4.356 0 0 1 198.37 98.704 Q 198.217 98.719 198.082 98.719 A 2.625 2.625 0 0 1 197.308 98.614 Q 196.458 98.352 196.235 97.428 A 3.159 3.159 0 0 1 196.157 96.69 L 196.157 92.743 L 195.206 92.743 L 195.206 92.258 L 196.157 91.84 L 196.58 90.424 L 197.162 90.424 L 197.162 91.962 L 199.087 91.962 L 199.087 92.743 L 197.162 92.743 L 197.162 96.648 Q 197.162 97.069 197.302 97.353 A 0.975 0.975 0 0 0 197.446 97.568 A 0.934 0.934 0 0 0 198.02 97.874 A 1.343 1.343 0 0 0 198.227 97.889 A 3.301 3.301 0 0 0 198.711 97.854 A 3.044 3.044 0 0 0 198.742 97.85 Q 198.99 97.81 199.135 97.768 Z M 206.097 96.283 A 5.192 5.192 0 0 0 206.189 95.273 Q 206.189 93.693 205.369 92.767 A 2.631 2.631 0 0 0 204.147 91.979 A 3.377 3.377 0 0 0 203.156 91.84 Q 201.715 91.84 200.903 92.746 A 2.777 2.777 0 0 0 200.562 93.219 Q 200.3 93.676 200.184 94.264 A 5.219 5.219 0 0 0 200.092 95.273 A 5.028 5.028 0 0 0 200.155 96.088 A 3.718 3.718 0 0 0 200.468 97.102 A 3.304 3.304 0 0 0 200.541 97.245 A 2.721 2.721 0 0 0 201.533 98.301 Q 202.223 98.719 203.113 98.719 A 3.903 3.903 0 0 0 203.795 98.662 A 2.68 2.68 0 0 0 205.372 97.807 A 2.804 2.804 0 0 0 205.706 97.349 Q 205.978 96.883 206.097 96.283 Z M 201.134 95.273 A 5.09 5.09 0 0 0 201.182 96.001 Q 201.29 96.75 201.642 97.211 Q 202.151 97.877 203.138 97.877 A 2.335 2.335 0 0 0 203.754 97.8 A 1.625 1.625 0 0 0 204.636 97.214 A 2.158 2.158 0 0 0 204.972 96.56 Q 205.071 96.257 205.114 95.888 A 5.294 5.294 0 0 0 205.148 95.273 A 5.015 5.015 0 0 0 205.1 94.559 Q 205.048 94.195 204.937 93.9 A 2.069 2.069 0 0 0 204.636 93.351 Q 204.125 92.694 203.126 92.694 A 2.392 2.392 0 0 0 202.53 92.764 A 1.601 1.601 0 0 0 201.636 93.342 A 2.078 2.078 0 0 0 201.313 93.966 Q 201.134 94.506 201.134 95.273 Z M 208.956 95.049 L 208.956 95.273 A 6.645 6.645 0 0 0 208.989 95.96 Q 209.08 96.832 209.422 97.275 Q 209.84 97.815 210.711 97.87 A 3.232 3.232 0 0 0 210.918 97.877 Q 211.778 97.877 212.265 97.181 Q 212.65 96.631 212.731 95.754 A 5.355 5.355 0 0 0 212.752 95.261 A 5.072 5.072 0 0 0 212.705 94.542 Q 212.653 94.177 212.543 93.881 A 2.131 2.131 0 0 0 212.265 93.357 A 1.563 1.563 0 0 0 211.122 92.706 A 2.162 2.162 0 0 0 210.894 92.694 Q 210.241 92.694 209.82 92.926 A 1.328 1.328 0 0 0 209.422 93.257 Q 208.997 93.784 208.96 94.895 A 6.396 6.396 0 0 0 208.956 95.049 Z"
       id="top_labelLayer"
       stroke="#777777"
       fill="#777777"
       style="stroke:#777777;fill:#777777"
       vector-effect="non-scaling-stroke" />
    <path
       d="M 0 0 L 0 20.594 L 4.5 20.594 L 4.5 41.406 L 0 41.406 L 0 62 L 14.281 62 L 14.281 57.5 L 35.094 57.5 L 35.094 62 L 55.906 62 L 55.906 57.5 L 76.719 57.5 L 76.719 62 L 91 62 L 91 41.406 L 86.5 41.406 L 86.5 20.594 L 91 20.594 L 91 0 L 76.719 0 L 76.719 4.5 L 55.906 4.5 L 55.906 0 L 35.094 0 L 35.094 4.5 L 14.281 4.5 L 14.281 0 L 0 0 Z"
       id="back_outsideCutPath"
       stroke="#FF0000"
       stroke-width="0.1"
       style="stroke:#FF0000;stroke-width:0.1"
       vector-effect="non-scaling-stroke" />
    <path
       d="M 53.989 32.253 L 54.037 32.253 A 5.95 5.95 0 0 1 54.184 32.054 Q 54.354 31.834 54.595 31.553 A 21.595 21.595 0 0 1 54.83 31.285 L 56.974 29.014 L 58.166 29.014 L 55.478 31.842 L 58.354 35.65 L 57.137 35.65 L 54.794 32.514 L 54.037 33.168 L 54.037 35.65 L 53.044 35.65 L 53.044 26.229 L 54.037 26.229 L 54.037 31.224 Q 54.037 31.557 53.989 32.253 Z M 33.651 34.796 L 33.578 34.796 L 33.366 35.65 L 32.646 35.65 L 32.646 26.229 L 33.651 26.229 L 33.651 28.518 A 20.955 20.955 0 0 1 33.64 29.225 Q 33.628 29.56 33.606 29.858 A 12.525 12.525 0 0 1 33.603 29.898 L 33.651 29.898 A 2.285 2.285 0 0 1 35.319 28.929 A 3.433 3.433 0 0 1 35.734 28.905 A 3.072 3.072 0 0 1 36.598 29.02 A 2.3 2.3 0 0 1 37.765 29.798 Q 38.489 30.691 38.489 32.326 A 5.893 5.893 0 0 1 38.411 33.317 Q 38.32 33.846 38.125 34.27 A 2.825 2.825 0 0 1 37.759 34.866 A 2.379 2.379 0 0 1 36.068 35.755 A 3.409 3.409 0 0 1 35.734 35.771 A 3.049 3.049 0 0 1 34.968 35.678 A 2.653 2.653 0 0 1 34.55 35.532 A 2.226 2.226 0 0 1 33.651 34.796 Z M 45.07 35.65 L 44.325 35.65 L 44.126 34.705 L 44.077 34.705 A 4.167 4.167 0 0 1 43.74 35.083 Q 43.559 35.261 43.378 35.385 A 1.852 1.852 0 0 1 43.087 35.55 Q 42.68 35.732 42.107 35.764 A 4.523 4.523 0 0 1 41.855 35.771 Q 41.066 35.771 40.549 35.446 A 1.731 1.731 0 0 1 40.308 35.262 A 1.652 1.652 0 0 1 39.81 34.391 A 2.529 2.529 0 0 1 39.748 33.815 Q 39.748 31.87 42.759 31.717 A 9.818 9.818 0 0 1 42.963 31.708 L 44.089 31.672 L 44.089 31.26 A 2.887 2.887 0 0 0 44.061 30.843 Q 43.992 30.372 43.753 30.107 A 1.02 1.02 0 0 0 43.335 29.834 Q 43.061 29.735 42.679 29.735 Q 41.849 29.735 40.802 30.243 L 40.493 29.474 Q 40.983 29.208 41.567 29.056 A 4.655 4.655 0 0 1 42.739 28.905 Q 43.926 28.905 44.498 29.432 A 1.592 1.592 0 0 1 44.909 30.065 Q 45.005 30.325 45.043 30.649 A 3.955 3.955 0 0 1 45.07 31.121 L 45.07 35.65 Z M 51.567 29.238 L 51.258 30.092 A 4.471 4.471 0 0 0 50.773 29.93 A 5.34 5.34 0 0 0 50.531 29.871 A 4.152 4.152 0 0 0 50.216 29.812 Q 50.062 29.79 49.925 29.785 A 2.228 2.228 0 0 0 49.835 29.783 A 2.229 2.229 0 0 0 48.93 29.953 Q 47.981 30.371 47.838 31.818 A 5.554 5.554 0 0 0 47.813 32.362 A 4.868 4.868 0 0 0 47.861 33.071 Q 47.914 33.43 48.025 33.722 A 2.085 2.085 0 0 0 48.306 34.239 A 1.596 1.596 0 0 0 49.341 34.857 A 2.432 2.432 0 0 0 49.769 34.893 Q 50.598 34.893 51.47 34.536 L 51.47 35.426 Q 50.804 35.771 49.793 35.771 A 3.756 3.756 0 0 1 48.879 35.666 A 2.547 2.547 0 0 1 47.562 34.884 A 2.907 2.907 0 0 1 46.957 33.774 Q 46.824 33.333 46.786 32.803 A 6.077 6.077 0 0 1 46.771 32.374 A 5.546 5.546 0 0 1 46.857 31.366 Q 46.962 30.803 47.192 30.36 A 2.771 2.771 0 0 1 47.574 29.801 A 2.602 2.602 0 0 1 48.999 28.982 A 3.945 3.945 0 0 1 49.859 28.893 A 4.536 4.536 0 0 1 50.816 28.996 A 5.017 5.017 0 0 1 51.095 29.064 Q 51.375 29.141 51.561 29.235 A 1.507 1.507 0 0 1 51.567 29.238 Z M 34.493 29.996 A 1.337 1.337 0 0 0 34.105 30.337 A 1.721 1.721 0 0 0 33.856 30.811 Q 33.688 31.282 33.658 31.998 A 7.744 7.744 0 0 0 33.651 32.326 A 6.645 6.645 0 0 0 33.684 33.013 Q 33.775 33.885 34.117 34.327 Q 34.535 34.867 35.406 34.923 A 3.232 3.232 0 0 0 35.613 34.929 A 2.004 2.004 0 0 0 36.182 34.853 A 1.445 1.445 0 0 0 36.993 34.254 A 2.307 2.307 0 0 0 37.279 33.637 Q 37.447 33.085 37.447 32.314 Q 37.447 31.018 36.993 30.382 Q 36.539 29.747 35.588 29.747 Q 34.919 29.747 34.493 29.996 Z M 44.065 32.986 L 44.065 32.386 L 43.06 32.429 Q 42.059 32.464 41.524 32.7 A 1.544 1.544 0 0 0 41.331 32.801 A 1.072 1.072 0 0 0 40.82 33.579 A 1.587 1.587 0 0 0 40.802 33.827 A 1.436 1.436 0 0 0 40.837 34.157 Q 40.91 34.466 41.132 34.657 A 1.094 1.094 0 0 0 41.541 34.875 Q 41.704 34.923 41.898 34.936 A 2.26 2.26 0 0 0 42.055 34.942 Q 42.993 34.942 43.529 34.427 A 1.683 1.683 0 0 0 43.999 33.586 Q 44.064 33.316 44.065 32.996 A 3.146 3.146 0 0 0 44.065 32.986 Z"
       id="back_labelLayer"
       stroke="#777777"
       fill="#777777"
       style="stroke:#777777;fill:#777777"
       vector-effect="non-scaling-stroke" />
    <path
       d="M 98.5 0 L 98.5 20.594 L 94 20.594 L 94 41.406 L 98.5 41.406 L 98.5 62 L 114.594 62 L 114.594 57.5 L 135.406 57.5 L 135.406 62 L 151.5 62 L 151.5 41.406 L 156 41.406 L 156 20.594 L 151.5 20.594 L 151.5 0 L 135.406 0 L 135.406 4.5 L 114.594 4.5 L 114.594 0 L 98.5 0 Z"
       id="right_outsideCutPath"
       stroke="#FF0000"
       stroke-width="0.1"
       style="stroke:#FF0000;stroke-width:0.1"
       vector-effect="non-scaling-stroke" />
    <path
       d="M 132.711 34.221 L 131.706 34.221 L 131.706 29.928 Q 131.706 29.411 131.555 29.061 A 1.196 1.196 0 0 0 131.336 28.717 A 1.133 1.133 0 0 0 130.871 28.421 Q 130.579 28.318 130.18 28.318 Q 129.496 28.318 129.053 28.56 A 1.407 1.407 0 0 0 128.651 28.887 Q 128.17 29.456 128.17 30.752 L 128.17 34.221 L 127.165 34.221 L 127.165 24.8 L 128.17 24.8 L 128.17 27.652 A 9.042 9.042 0 0 1 128.163 27.999 Q 128.152 28.288 128.121 28.505 L 128.182 28.505 Q 128.478 28.027 129.026 27.752 A 2.58 2.58 0 0 1 129.873 27.5 A 3.262 3.262 0 0 1 130.277 27.476 Q 131.077 27.476 131.614 27.726 A 1.812 1.812 0 0 1 132.102 28.054 A 1.75 1.75 0 0 1 132.534 28.732 Q 132.637 29.014 132.68 29.364 A 4.346 4.346 0 0 1 132.711 29.892 L 132.711 34.221 Z M 123.508 27.585 L 125.802 27.585 L 125.802 28.221 L 124.573 28.366 A 1.633 1.633 0 0 1 124.715 28.577 Q 124.777 28.685 124.833 28.815 A 3.099 3.099 0 0 1 124.876 28.92 A 1.934 1.934 0 0 1 124.99 29.382 A 2.483 2.483 0 0 1 125.009 29.692 A 2.304 2.304 0 0 1 124.903 30.406 A 1.864 1.864 0 0 1 124.343 31.248 Q 123.743 31.772 122.74 31.824 A 4.365 4.365 0 0 1 122.515 31.829 A 3.23 3.23 0 0 1 122.141 31.809 A 2.728 2.728 0 0 1 121.958 31.781 Q 121.316 32.12 121.316 32.635 A 0.521 0.521 0 0 0 121.342 32.805 Q 121.39 32.945 121.526 33.029 A 0.557 0.557 0 0 0 121.54 33.037 Q 121.72 33.142 122.109 33.163 A 3.823 3.823 0 0 0 122.309 33.168 L 123.483 33.168 Q 124.202 33.168 124.699 33.37 A 1.816 1.816 0 0 1 125.139 33.622 A 1.47 1.47 0 0 1 125.686 34.558 A 2.208 2.208 0 0 1 125.717 34.942 A 2.176 2.176 0 0 1 125.593 35.694 Q 125.386 36.26 124.833 36.622 Q 123.95 37.2 122.254 37.2 A 5.631 5.631 0 0 1 121.499 37.153 Q 121.115 37.101 120.802 36.991 A 2.336 2.336 0 0 1 120.247 36.716 A 1.602 1.602 0 0 1 119.731 36.155 Q 119.565 35.849 119.545 35.46 A 2.122 2.122 0 0 1 119.542 35.347 Q 119.542 34.742 119.929 34.3 A 1.755 1.755 0 0 1 120.532 33.861 A 2.487 2.487 0 0 1 121.019 33.7 A 1.043 1.043 0 0 1 120.614 33.373 A 1.238 1.238 0 0 1 120.592 33.343 Q 120.42 33.101 120.42 32.78 A 1.149 1.149 0 0 1 120.478 32.41 A 1.019 1.019 0 0 1 120.613 32.144 Q 120.807 31.872 121.225 31.618 A 1.762 1.762 0 0 1 120.459 31.005 A 2.184 2.184 0 0 1 120.386 30.897 Q 120.062 30.388 120.062 29.735 A 2.904 2.904 0 0 1 120.139 29.048 A 1.911 1.911 0 0 1 120.716 28.054 A 2.134 2.134 0 0 1 121.536 27.603 Q 121.988 27.464 122.569 27.464 A 3.853 3.853 0 0 1 123.079 27.496 A 2.934 2.934 0 0 1 123.508 27.585 Z M 137.827 33.392 L 137.827 34.161 Q 137.679 34.232 137.406 34.28 A 3.758 3.758 0 0 1 137.346 34.291 A 4.356 4.356 0 0 1 137.061 34.328 Q 136.908 34.342 136.773 34.342 A 2.625 2.625 0 0 1 136 34.238 Q 135.149 33.976 134.927 33.052 A 3.159 3.159 0 0 1 134.848 32.314 L 134.848 28.366 L 133.897 28.366 L 133.897 27.882 L 134.848 27.464 L 135.272 26.047 L 135.853 26.047 L 135.853 27.585 L 137.778 27.585 L 137.778 28.366 L 135.853 28.366 L 135.853 32.271 Q 135.853 32.693 135.994 32.976 A 0.975 0.975 0 0 0 136.138 33.192 A 0.934 0.934 0 0 0 136.712 33.497 A 1.343 1.343 0 0 0 136.919 33.513 A 3.301 3.301 0 0 0 137.402 33.478 A 3.044 3.044 0 0 0 137.433 33.473 Q 137.682 33.434 137.827 33.392 Z M 115.994 27.537 L 115.854 28.469 Q 115.511 28.393 115.236 28.381 A 2.358 2.358 0 0 0 115.128 28.378 A 1.742 1.742 0 0 0 113.841 28.934 A 2.383 2.383 0 0 0 113.75 29.032 A 2.295 2.295 0 0 0 113.197 30.321 A 3.051 3.051 0 0 0 113.178 30.661 L 113.178 34.221 L 112.173 34.221 L 112.173 27.585 L 113.003 27.585 L 113.118 28.814 L 113.166 28.814 A 3.394 3.394 0 0 1 113.546 28.272 A 2.593 2.593 0 0 1 114.056 27.815 A 2.004 2.004 0 0 1 115.2 27.464 A 4.614 4.614 0 0 1 115.614 27.482 A 3.368 3.368 0 0 1 115.994 27.537 Z M 118.24 27.585 L 118.24 34.221 L 117.235 34.221 L 117.235 27.585 L 118.24 27.585 Z M 123.162 34.07 L 121.958 34.07 A 2.31 2.31 0 0 0 121.541 34.105 Q 121.305 34.148 121.118 34.245 A 1.177 1.177 0 0 0 120.892 34.397 Q 120.51 34.724 120.51 35.335 A 1.009 1.009 0 0 0 120.577 35.71 Q 120.673 35.951 120.905 36.114 A 1.179 1.179 0 0 0 120.965 36.153 A 1.61 1.61 0 0 0 121.36 36.322 Q 121.737 36.431 122.266 36.431 Q 123.397 36.431 124.003 36.129 A 1.669 1.669 0 0 0 124.14 36.053 A 1.466 1.466 0 0 0 124.48 35.768 A 1.099 1.099 0 0 0 124.749 35.026 A 1.36 1.36 0 0 0 124.724 34.756 Q 124.658 34.43 124.416 34.279 A 0.953 0.953 0 0 0 124.19 34.18 Q 123.949 34.106 123.568 34.082 A 6.395 6.395 0 0 0 123.162 34.07 Z M 121.055 29.71 A 1.962 1.962 0 0 0 121.096 30.122 Q 121.181 30.521 121.449 30.764 Q 121.803 31.086 122.409 31.118 A 2.588 2.588 0 0 0 122.545 31.121 A 2.19 2.19 0 0 0 123.118 31.053 Q 124.016 30.808 124.016 29.692 Q 124.016 28.505 123.078 28.26 A 2.186 2.186 0 0 0 122.527 28.197 A 2.109 2.109 0 0 0 122.097 28.238 Q 121.693 28.322 121.437 28.578 A 1.206 1.206 0 0 0 121.145 29.07 Q 121.083 29.26 121.064 29.491 A 2.644 2.644 0 0 0 121.055 29.71 Z M 117.164 25.603 A 1.114 1.114 0 0 0 117.15 25.787 A 1.187 1.187 0 0 0 117.155 25.9 Q 117.165 26.002 117.193 26.085 A 0.519 0.519 0 0 0 117.32 26.292 A 0.564 0.564 0 0 0 117.524 26.422 A 0.638 0.638 0 0 0 117.743 26.459 A 0.586 0.586 0 0 0 118.161 26.292 A 0.491 0.491 0 0 0 118.257 26.166 Q 118.301 26.083 118.321 25.977 A 1.04 1.04 0 0 0 118.337 25.787 A 1.15 1.15 0 0 0 118.332 25.678 Q 118.322 25.579 118.295 25.498 A 0.507 0.507 0 0 0 118.161 25.284 A 0.592 0.592 0 0 0 117.743 25.121 A 0.767 0.767 0 0 0 117.693 25.123 A 0.581 0.581 0 0 0 117.32 25.281 Q 117.199 25.395 117.164 25.603 Z"
       id="right_labelLayer"
       stroke="#777777"
       fill="#777777"
       style="stroke:#777777;fill:#777777"
       vector-effect="non-scaling-stroke" />
    <path
       d="M 163.5 4.5 L 163.5 20.594 L 159 20.594 L 159 41.406 L 163.5 41.406 L 163.5 57.5 L 173.281 57.5 L 173.281 62 L 194.094 62 L 194.094 57.5 L 214.906 57.5 L 214.906 62 L 235.719 62 L 235.719 57.5 L 245.5 57.5 L 245.5 41.406 L 250 41.406 L 250 20.594 L 245.5 20.594 L 245.5 4.5 L 235.719 4.5 L 235.719 0 L 214.906 0 L 214.906 4.5 L 194.094 4.5 L 194.094 0 L 173.281 0 L 173.281 4.5 L 163.5 4.5 Z"
       id="bottom_outsideCutPath"
       stroke="#FF0000"
       stroke-width="0.1"
       style="stroke:#FF0000;stroke-width:0.1"
       vector-effect="non-scaling-stroke" />
    <path
       d="M 224.898 35.65 L 223.893 35.65 L 223.893 31.333 Q 223.893 30.836 223.76 30.495 A 1.215 1.215 0 0 0 223.554 30.143 Q 223.257 29.796 222.674 29.753 A 2.333 2.333 0 0 0 222.501 29.747 A 2.586 2.586 0 0 0 221.974 29.797 Q 221.661 29.862 221.426 30.011 A 1.331 1.331 0 0 0 221.114 30.285 A 1.661 1.661 0 0 0 220.832 30.795 Q 220.667 31.258 220.666 31.934 A 5.54 5.54 0 0 0 220.666 31.944 L 220.666 35.65 L 219.661 35.65 L 219.661 31.333 Q 219.661 30.836 219.528 30.495 A 1.215 1.215 0 0 0 219.322 30.143 Q 218.983 29.747 218.262 29.747 Q 217.318 29.747 216.879 30.313 A 1.685 1.685 0 0 0 216.629 30.787 Q 216.44 31.322 216.44 32.168 L 216.44 35.65 L 215.435 35.65 L 215.435 29.014 L 216.252 29.014 L 216.416 29.922 L 216.464 29.922 A 1.975 1.975 0 0 1 217.266 29.165 A 2.386 2.386 0 0 1 218.209 28.901 A 2.882 2.882 0 0 1 218.426 28.893 A 3.291 3.291 0 0 1 219.166 28.97 Q 220.107 29.188 220.46 30.019 L 220.509 30.019 A 2.099 2.099 0 0 1 221.299 29.234 A 2.522 2.522 0 0 1 221.368 29.196 A 2.544 2.544 0 0 1 222.302 28.912 A 3.172 3.172 0 0 1 222.652 28.893 Q 223.411 28.893 223.913 29.156 A 1.656 1.656 0 0 1 224.338 29.471 A 1.731 1.731 0 0 1 224.71 30.079 Q 224.81 30.347 224.857 30.681 A 4.61 4.61 0 0 1 224.898 31.321 L 224.898 35.65 Z M 185.107 34.796 L 185.034 34.796 L 184.822 35.65 L 184.102 35.65 L 184.102 26.229 L 185.107 26.229 L 185.107 28.517 A 20.955 20.955 0 0 1 185.095 29.225 Q 185.084 29.56 185.061 29.858 A 12.525 12.525 0 0 1 185.058 29.898 L 185.107 29.898 A 2.285 2.285 0 0 1 186.775 28.929 A 3.433 3.433 0 0 1 187.19 28.905 A 3.072 3.072 0 0 1 188.054 29.02 A 2.3 2.3 0 0 1 189.221 29.798 Q 189.945 30.691 189.945 32.326 A 5.893 5.893 0 0 1 189.866 33.317 Q 189.776 33.846 189.581 34.27 A 2.825 2.825 0 0 1 189.215 34.866 A 2.379 2.379 0 0 1 187.524 35.755 A 3.409 3.409 0 0 1 187.19 35.771 A 3.049 3.049 0 0 1 186.424 35.678 A 2.653 2.653 0 0 1 186.006 35.532 A 2.226 2.226 0 0 1 185.107 34.796 Z M 202.242 34.82 L 202.242 35.589 Q 202.094 35.66 201.82 35.709 A 3.758 3.758 0 0 1 201.76 35.719 A 4.356 4.356 0 0 1 201.476 35.756 Q 201.323 35.771 201.188 35.771 A 2.625 2.625 0 0 1 200.414 35.667 Q 199.564 35.404 199.342 34.481 A 3.159 3.159 0 0 1 199.263 33.743 L 199.263 29.795 L 198.312 29.795 L 198.312 29.311 L 199.263 28.893 L 199.686 27.476 L 200.268 27.476 L 200.268 29.014 L 202.193 29.014 L 202.193 29.795 L 200.268 29.795 L 200.268 33.7 Q 200.268 34.121 200.408 34.405 A 0.975 0.975 0 0 0 200.552 34.621 A 0.934 0.934 0 0 0 201.126 34.926 A 1.343 1.343 0 0 0 201.333 34.941 A 3.301 3.301 0 0 0 201.817 34.907 A 3.044 3.044 0 0 0 201.848 34.902 Q 202.096 34.863 202.242 34.82 Z M 206.619 34.82 L 206.619 35.589 Q 206.471 35.66 206.198 35.709 A 3.758 3.758 0 0 1 206.138 35.719 A 4.356 4.356 0 0 1 205.854 35.756 Q 205.701 35.771 205.566 35.771 A 2.625 2.625 0 0 1 204.792 35.667 Q 203.942 35.404 203.719 34.481 A 3.159 3.159 0 0 1 203.64 33.743 L 203.64 29.795 L 202.69 29.795 L 202.69 29.311 L 203.64 28.893 L 204.064 27.476 L 204.645 27.476 L 204.645 29.014 L 206.571 29.014 L 206.571 29.795 L 204.645 29.795 L 204.645 33.7 Q 204.645 34.121 204.786 34.405 A 0.975 0.975 0 0 0 204.93 34.621 A 0.934 0.934 0 0 0 205.504 34.926 A 1.343 1.343 0 0 0 205.711 34.941 A 3.301 3.301 0 0 0 206.194 34.907 A 3.044 3.044 0 0 0 206.226 34.902 Q 206.474 34.863 206.619 34.82 Z M 197.336 33.336 A 5.192 5.192 0 0 0 197.428 32.326 Q 197.428 30.746 196.608 29.819 A 2.631 2.631 0 0 0 195.386 29.031 A 3.377 3.377 0 0 0 194.395 28.893 Q 192.954 28.893 192.142 29.798 A 2.777 2.777 0 0 0 191.801 30.271 Q 191.539 30.729 191.423 31.317 A 5.219 5.219 0 0 0 191.331 32.326 A 5.028 5.028 0 0 0 191.394 33.14 A 3.718 3.718 0 0 0 191.706 34.154 A 3.304 3.304 0 0 0 191.78 34.298 A 2.721 2.721 0 0 0 192.772 35.353 Q 193.462 35.771 194.352 35.771 A 3.903 3.903 0 0 0 195.034 35.714 A 2.68 2.68 0 0 0 196.611 34.86 A 2.804 2.804 0 0 0 196.945 34.401 Q 197.217 33.935 197.336 33.336 Z M 213.581 33.336 A 5.192 5.192 0 0 0 213.673 32.326 Q 213.673 30.746 212.852 29.819 A 2.631 2.631 0 0 0 211.631 29.031 A 3.377 3.377 0 0 0 210.639 28.893 Q 209.198 28.893 208.387 29.798 A 2.777 2.777 0 0 0 208.046 30.271 Q 207.783 30.729 207.667 31.317 A 5.219 5.219 0 0 0 207.576 32.326 A 5.028 5.028 0 0 0 207.639 33.14 A 3.718 3.718 0 0 0 207.951 34.154 A 3.304 3.304 0 0 0 208.024 34.298 A 2.721 2.721 0 0 0 209.017 35.353 Q 209.707 35.771 210.597 35.771 A 3.903 3.903 0 0 0 211.279 35.714 A 2.68 2.68 0 0 0 212.855 34.86 A 2.804 2.804 0 0 0 213.189 34.401 Q 213.462 33.935 213.581 33.336 Z M 192.372 32.326 A 5.09 5.09 0 0 0 192.421 33.053 Q 192.529 33.803 192.881 34.263 Q 193.39 34.929 194.377 34.929 A 2.335 2.335 0 0 0 194.992 34.853 A 1.625 1.625 0 0 0 195.875 34.266 A 2.158 2.158 0 0 0 196.211 33.612 Q 196.31 33.31 196.353 32.94 A 5.294 5.294 0 0 0 196.387 32.326 A 5.015 5.015 0 0 0 196.339 31.611 Q 196.287 31.247 196.176 30.953 A 2.069 2.069 0 0 0 195.875 30.403 Q 195.363 29.747 194.364 29.747 A 2.392 2.392 0 0 0 193.769 29.816 A 1.601 1.601 0 0 0 192.875 30.394 A 2.078 2.078 0 0 0 192.552 31.019 Q 192.372 31.559 192.372 32.326 Z M 208.617 32.326 A 5.09 5.09 0 0 0 208.666 33.053 Q 208.774 33.803 209.126 34.263 Q 209.634 34.929 210.621 34.929 A 2.335 2.335 0 0 0 211.237 34.853 A 1.625 1.625 0 0 0 212.12 34.266 A 2.158 2.158 0 0 0 212.456 33.612 Q 212.555 33.31 212.598 32.94 A 5.294 5.294 0 0 0 212.631 32.326 A 5.015 5.015 0 0 0 212.584 31.611 Q 212.531 31.247 212.421 30.953 A 2.069 2.069 0 0 0 212.12 30.403 Q 211.608 29.747 210.609 29.747 A 2.392 2.392 0 0 0 210.014 29.816 A 1.601 1.601 0 0 0 209.12 30.394 A 2.078 2.078 0 0 0 208.797 31.019 Q 208.617 31.559 208.617 32.326 Z M 185.949 29.996 A 1.337 1.337 0 0 0 185.561 30.337 A 1.721 1.721 0 0 0 185.312 30.811 Q 185.144 31.282 185.113 31.998 A 7.744 7.744 0 0 0 185.107 32.326 A 6.645 6.645 0 0 0 185.14 33.013 Q 185.231 33.884 185.573 34.327 Q 185.991 34.867 186.861 34.923 A 3.232 3.232 0 0 0 187.069 34.929 A 2.004 2.004 0 0 0 187.638 34.853 A 1.445 1.445 0 0 0 188.449 34.254 A 2.307 2.307 0 0 0 188.734 33.637 Q 188.903 33.085 188.903 32.314 Q 188.903 31.018 188.449 30.382 Q 187.995 29.747 187.044 29.747 Q 186.375 29.747 185.949 29.996 Z"
       id="bottom_labelLayer"
       stroke="#777777"
       fill="#777777"
       style="stroke:#777777;fill:#777777"
       vector-effect="non-scaling-stroke" />
  </g>
  <rect
     style="fill:none;stroke:#000000;stroke-width:0.545401"
     id="rect177"
     width="70.954597"
     height="23.954599"
     x="8.9727001"
     y="76.472702" />
  <rect
     style="fill:none;stroke:#000000;stroke-width:0.258234"
     id="rect981"
     width="12.891766"
     height="9.5417662"
     x="8.8291178"
     y="106.12912" />
  <rect
     style="fill:none;stroke:#000000;stroke-width:0.284525"
     id="rect1001"
     width="9.5654755"
     height="9.5154753"
     x="26.292263"
     y="106.14226" />
  <rect
     style="fill:none;stroke:#000000;stroke-width:0.284525"
     id="rect1001-3"
     width="9.5654755"
     height="9.5154753"
     x="40.302261"
     y="106.14227" />
  <circle
     style="fill:none;stroke:#000000;stroke-width:0.254685"
     id="path1130"
     cx="66.959076"
     cy="112.625"
     r="3.3226576" />
  <rect
     style="fill:none;stroke:#000000;stroke-width:0.381493"
     id="rect1325"
     width="8.2185068"
     height="10.118507"
     x="123.19075"
     y="15.990745" />
  <circle
     style="fill:none;stroke:#000000;stroke-width:0.140225"
     id="path2105"
     cx="136.41916"
     cy="33.849998"
     r="3.1798878" />
</svg>
