<?xml version="1.0" encoding="UTF-8" standalone="no"?>
<svg
   width="241mm"
   height="127mm"
   viewBox="0 0 241 127"
   version="1.1"
   preserveAspectRatio="xMidYMid meet"
   id="svg1269"
   sodipodi:docname="box.svg"
   inkscape:version="1.2.2 (b0a8486541, 2022-12-01)"
   xmlns:inkscape="http://www.inkscape.org/namespaces/inkscape"
   xmlns:sodipodi="http://sodipodi.sourceforge.net/DTD/sodipodi-0.dtd"
   xmlns="http://www.w3.org/2000/svg"
   xmlns:svg="http://www.w3.org/2000/svg">
  <defs
     id="defs1273" />
  <sodipodi:namedview
     id="namedview1271"
     pagecolor="#ffffff"
     bordercolor="#999999"
     borderopacity="1"
     inkscape:showpageshadow="0"
     inkscape:pageopacity="0"
     inkscape:pagecheckerboard="0"
     inkscape:deskcolor="#d1d1d1"
     inkscape:document-units="mm"
     showgrid="false"
     inkscape:zoom="3.0447649"
     inkscape:cx="728.46346"
     inkscape:cy="368.17292"
     inkscape:window-width="1914"
     inkscape:window-height="1033"
     inkscape:window-x="0"
     inkscape:window-y="0"
     inkscape:window-maximized="1"
     inkscape:current-layer="svg1269" />
  <g
     id="svgGroup"
     stroke-linecap="round"
     fill-rule="evenodd"
     font-size="9pt"
     stroke="#000"
     stroke-width="0.25mm"
     fill="none"
     style="stroke:#000;stroke-width:0.25mm;fill:none">
    <path
       d="M 0 65 L 0 86.156 L 4.5 86.156 L 4.5 105.844 L 0 105.844 L 0 125.531 L 0 127 L 15.469 127 L 15.469 122.5 L 35.156 122.5 L 35.156 127 L 54.844 127 L 54.844 122.5 L 74.531 122.5 L 74.531 127 L 90 127 L 90 105.844 L 85.5 105.844 L 85.5 86.156 L 90 86.156 L 90 66.469 L 90 65 L 74.531 65 L 74.531 69.5 L 54.844 69.5 L 54.844 65 L 35.156 65 L 35.156 69.5 L 15.469 69.5 L 15.469 65 L 0 65 Z"
       id="front_outsideCutPath"
       stroke="#FF0000"
       stroke-width="0.1"
       style="stroke:#FF0000;stroke-width:0.1"
       vector-effect="non-scaling-stroke" />
    <path
       d="M 54.037 100.683 L 53.032 100.683 L 53.032 96.39 Q 53.032 95.873 52.881 95.523 A 1.196 1.196 0 0 0 52.662 95.179 A 1.133 1.133 0 0 0 52.197 94.883 Q 51.905 94.78 51.506 94.78 A 3.042 3.042 0 0 0 50.937 94.829 Q 50.321 94.947 49.98 95.343 A 1.643 1.643 0 0 0 49.694 95.842 Q 49.496 96.372 49.496 97.202 L 49.496 100.683 L 48.491 100.683 L 48.491 94.047 L 49.308 94.047 L 49.471 94.955 L 49.52 94.955 A 2.035 2.035 0 0 1 50.317 94.23 A 2.447 2.447 0 0 1 50.386 94.196 A 2.722 2.722 0 0 1 51.354 93.937 A 3.291 3.291 0 0 1 51.627 93.926 Q 52.422 93.926 52.956 94.18 A 1.806 1.806 0 0 1 53.431 94.504 Q 53.892 94.944 54.002 95.785 A 4.386 4.386 0 0 1 54.037 96.354 L 54.037 100.683 Z M 34.728 94.047 L 34.728 94.828 L 33.039 94.828 L 33.039 100.683 L 32.034 100.683 L 32.034 94.828 L 30.847 94.828 L 30.847 94.374 L 32.034 94.011 L 32.034 93.642 Q 32.034 91.53 33.627 91.241 A 3.055 3.055 0 0 1 34.171 91.195 A 3.237 3.237 0 0 1 34.629 91.23 Q 34.986 91.282 35.406 91.407 L 35.146 92.213 A 4.881 4.881 0 0 0 34.766 92.106 Q 34.423 92.025 34.153 92.025 A 1.355 1.355 0 0 0 33.826 92.062 A 0.87 0.87 0 0 0 33.311 92.403 A 1.163 1.163 0 0 0 33.158 92.713 Q 33.056 93.016 33.041 93.466 A 4.745 4.745 0 0 0 33.039 93.617 L 33.039 94.047 L 34.728 94.047 Z M 59.153 99.854 L 59.153 100.623 Q 59.005 100.694 58.732 100.743 A 3.758 3.758 0 0 1 58.671 100.753 A 4.356 4.356 0 0 1 58.387 100.79 Q 58.234 100.804 58.099 100.804 A 2.625 2.625 0 0 1 57.326 100.7 Q 56.475 100.438 56.253 99.514 A 3.159 3.159 0 0 1 56.174 98.776 L 56.174 94.828 L 55.223 94.828 L 55.223 94.344 L 56.174 93.926 L 56.598 92.509 L 57.179 92.509 L 57.179 94.047 L 59.104 94.047 L 59.104 94.828 L 57.179 94.828 L 57.179 98.734 Q 57.179 99.155 57.319 99.438 A 0.975 0.975 0 0 0 57.464 99.654 A 0.934 0.934 0 0 0 58.038 99.959 A 1.343 1.343 0 0 0 58.245 99.975 A 3.301 3.301 0 0 0 58.728 99.94 A 3.044 3.044 0 0 0 58.759 99.935 Q 59.008 99.896 59.153 99.854 Z M 39.76 93.999 L 39.62 94.931 Q 39.277 94.856 39.002 94.843 A 2.358 2.358 0 0 0 38.894 94.84 A 1.742 1.742 0 0 0 37.607 95.396 A 2.383 2.383 0 0 0 37.516 95.494 A 2.295 2.295 0 0 0 36.963 96.783 A 3.051 3.051 0 0 0 36.944 97.123 L 36.944 100.683 L 35.939 100.683 L 35.939 94.047 L 36.769 94.047 L 36.884 95.276 L 36.932 95.276 A 3.394 3.394 0 0 1 37.312 94.734 A 2.593 2.593 0 0 1 37.822 94.277 A 2.004 2.004 0 0 1 38.967 93.926 A 4.614 4.614 0 0 1 39.38 93.944 A 3.368 3.368 0 0 1 39.76 93.999 Z M 46.636 98.369 A 5.192 5.192 0 0 0 46.729 97.359 Q 46.729 95.779 45.908 94.853 A 2.631 2.631 0 0 0 44.687 94.065 A 3.377 3.377 0 0 0 43.695 93.926 Q 42.254 93.926 41.443 94.831 A 2.777 2.777 0 0 0 41.102 95.304 Q 40.839 95.762 40.723 96.35 A 5.219 5.219 0 0 0 40.632 97.359 A 5.028 5.028 0 0 0 40.695 98.174 A 3.718 3.718 0 0 0 41.007 99.188 A 3.304 3.304 0 0 0 41.08 99.331 A 2.721 2.721 0 0 0 42.073 100.386 Q 42.763 100.804 43.653 100.804 A 3.903 3.903 0 0 0 44.334 100.747 A 2.68 2.68 0 0 0 45.911 99.893 A 2.804 2.804 0 0 0 46.245 99.434 Q 46.517 98.968 46.636 98.369 Z M 41.673 97.359 A 5.09 5.09 0 0 0 41.721 98.086 Q 41.83 98.836 42.182 99.297 Q 42.69 99.963 43.677 99.963 A 2.335 2.335 0 0 0 44.293 99.886 A 1.625 1.625 0 0 0 45.176 99.3 A 2.158 2.158 0 0 0 45.512 98.645 Q 45.61 98.343 45.654 97.974 A 5.294 5.294 0 0 0 45.687 97.359 A 5.015 5.015 0 0 0 45.64 96.645 Q 45.587 96.281 45.477 95.986 A 2.069 2.069 0 0 0 45.176 95.437 Q 44.664 94.78 43.665 94.78 A 2.392 2.392 0 0 0 43.069 94.85 A 1.601 1.601 0 0 0 42.175 95.428 A 2.078 2.078 0 0 0 41.852 96.052 Q 41.673 96.592 41.673 97.359 Z"
       id="front_labelLayer"
       stroke="#777777"
       fill="#777777"
       style="stroke:#777777;fill:#777777"
       vector-effect="non-scaling-stroke" />
    <path
       d="M 97.5 65 L 97.5 86.156 L 93 86.156 L 93 105.844 L 97.5 105.844 L 97.5 125.531 L 97.5 127 L 110.656 127 L 110.656 122.5 L 130.344 122.5 L 130.344 127 L 143.5 127 L 143.5 105.844 L 148 105.844 L 148 86.156 L 143.5 86.156 L 143.5 66.469 L 143.5 65 L 130.344 65 L 130.344 69.5 L 110.656 69.5 L 110.656 65 L 97.5 65 Z"
       id="left_outsideCutPath"
       stroke="#FF0000"
       stroke-width="0.1"
       style="stroke:#FF0000;stroke-width:0.1"
       vector-effect="non-scaling-stroke" />
    <path
       d="M 124.413 94.268 L 124.413 94.961 L 122.914 94.961 L 122.914 100.154 L 122.023 100.154 L 122.023 94.961 L 120.97 94.961 L 120.97 94.558 L 122.023 94.235 L 122.023 93.908 Q 122.023 91.738 123.919 91.738 Q 124.282 91.738 124.743 91.852 A 5.772 5.772 0 0 1 125.014 91.926 L 124.783 92.64 Q 124.268 92.474 123.903 92.474 Q 123.398 92.474 123.156 92.809 Q 122.914 93.145 122.914 93.886 L 122.914 94.268 L 124.413 94.268 Z M 120.24 96.808 L 120.24 97.372 L 116.184 97.372 Q 116.203 98.08 116.44 98.555 A 1.674 1.674 0 0 0 116.708 98.946 A 1.62 1.62 0 0 0 117.559 99.425 A 2.455 2.455 0 0 0 118.107 99.483 A 4.709 4.709 0 0 0 119.871 99.134 A 5.396 5.396 0 0 0 119.987 99.086 L 119.987 99.88 Q 119.514 100.085 119.093 100.173 A 3.743 3.743 0 0 1 118.721 100.231 Q 118.429 100.262 118.075 100.262 A 3.465 3.465 0 0 1 117.208 100.159 A 2.453 2.453 0 0 1 116.015 99.467 A 2.624 2.624 0 0 1 115.387 98.314 Q 115.278 97.906 115.263 97.42 A 5.093 5.093 0 0 1 115.26 97.259 Q 115.26 95.836 115.961 94.998 A 2.285 2.285 0 0 1 117.627 94.168 A 3.152 3.152 0 0 1 117.844 94.16 A 2.716 2.716 0 0 1 118.609 94.263 A 2.067 2.067 0 0 1 119.595 94.888 A 2.493 2.493 0 0 1 120.16 96.027 A 3.629 3.629 0 0 1 120.24 96.808 Z M 128.194 99.419 L 128.194 100.101 A 0.877 0.877 0 0 1 128.09 100.142 Q 127.961 100.185 127.767 100.216 Q 127.504 100.259 127.29 100.262 A 2.287 2.287 0 0 1 127.26 100.262 Q 125.552 100.262 125.552 98.463 L 125.552 94.961 L 124.708 94.961 L 124.708 94.531 L 125.552 94.16 L 125.927 92.903 L 126.443 92.903 L 126.443 94.268 L 128.151 94.268 L 128.151 94.961 L 126.443 94.961 L 126.443 98.425 A 1.795 1.795 0 0 0 126.469 98.74 Q 126.524 99.048 126.696 99.241 Q 126.948 99.526 127.388 99.526 A 2.928 2.928 0 0 0 127.817 99.495 A 2.699 2.699 0 0 0 127.845 99.491 A 4.823 4.823 0 0 0 127.974 99.469 Q 128.097 99.446 128.182 99.422 A 1.341 1.341 0 0 0 128.194 99.419 Z M 113.698 91.797 L 113.698 100.154 L 112.806 100.154 L 112.806 91.797 L 113.698 91.797 Z M 116.206 96.647 L 119.283 96.647 A 3.038 3.038 0 0 0 119.247 96.159 Q 119.204 95.897 119.111 95.687 A 1.379 1.379 0 0 0 118.907 95.355 Q 118.531 94.907 117.833 94.907 A 1.758 1.758 0 0 0 117.326 94.977 A 1.358 1.358 0 0 0 116.703 95.369 Q 116.321 95.787 116.223 96.495 A 3.368 3.368 0 0 0 116.206 96.647 Z"
       id="left_labelLayer"
       stroke="#777777"
       fill="#777777"
       style="stroke:#777777;fill:#777777"
       vector-effect="non-scaling-stroke" />
    <path
       d="M 155.5 76.5 L 155.5 89.656 L 151 89.656 L 151 109.344 L 155.5 109.344 L 155.5 122.5 L 166.469 122.5 L 166.469 127 L 186.156 127 L 186.156 122.5 L 205.844 122.5 L 205.844 127 L 225.531 127 L 225.531 122.5 L 236.5 122.5 L 236.5 109.344 L 241 109.344 L 241 89.656 L 236.5 89.656 L 236.5 76.5 L 225.531 76.5 L 225.531 72 L 205.844 72 L 205.844 76.5 L 186.156 76.5 L 186.156 72 L 166.469 72 L 166.469 76.5 L 155.5 76.5 Z"
       id="top_outsideCutPath"
       stroke="#FF0000"
       stroke-width="0.1"
       style="stroke:#FF0000;stroke-width:0.1"
       vector-effect="non-scaling-stroke" />
    <path
       d="M 199.953 101.047 L 199.889 101.047 A 8.438 8.438 0 0 1 199.944 101.67 A 7.071 7.071 0 0 1 199.953 102.024 L 199.953 104.447 L 199.061 104.447 L 199.061 95.917 L 199.787 95.917 L 199.91 96.723 L 199.953 96.723 A 2.4 2.4 0 0 1 200.3 96.329 A 1.856 1.856 0 0 1 200.753 96.025 Q 201.21 95.81 201.801 95.81 Q 202.972 95.81 203.608 96.61 A 2.677 2.677 0 0 1 204.065 97.502 Q 204.245 98.088 204.245 98.855 A 5.228 5.228 0 0 1 204.175 99.735 Q 204.095 100.204 203.922 100.58 A 2.506 2.506 0 0 1 203.597 101.109 A 2.111 2.111 0 0 1 202.097 101.897 A 3.024 3.024 0 0 1 201.801 101.912 A 2.704 2.704 0 0 1 201.121 101.829 A 2.353 2.353 0 0 1 200.751 101.699 Q 200.275 101.487 199.953 101.047 Z M 191.241 101.068 L 191.241 101.75 A 0.877 0.877 0 0 1 191.137 101.792 Q 191.008 101.835 190.814 101.866 Q 190.551 101.909 190.337 101.911 A 2.287 2.287 0 0 1 190.307 101.912 Q 188.599 101.912 188.599 100.112 L 188.599 96.61 L 187.755 96.61 L 187.755 96.181 L 188.599 95.81 L 188.975 94.553 L 189.49 94.553 L 189.49 95.917 L 191.198 95.917 L 191.198 96.61 L 189.49 96.61 L 189.49 100.075 A 1.795 1.795 0 0 0 189.516 100.39 Q 189.571 100.698 189.743 100.891 Q 189.995 101.176 190.436 101.176 A 2.928 2.928 0 0 0 190.864 101.145 A 2.699 2.699 0 0 0 190.892 101.141 A 4.823 4.823 0 0 0 191.021 101.119 Q 191.144 101.096 191.229 101.072 A 1.341 1.341 0 0 0 191.241 101.068 Z M 196.773 101.103 A 2.487 2.487 0 0 0 197.07 100.696 Q 197.498 99.963 197.498 98.855 A 5.233 5.233 0 0 0 197.497 98.714 Q 197.483 98.224 197.377 97.808 A 2.776 2.776 0 0 0 196.771 96.632 A 2.334 2.334 0 0 0 195.687 95.933 A 2.996 2.996 0 0 0 194.808 95.81 A 3.463 3.463 0 0 0 194.186 95.863 A 2.358 2.358 0 0 0 192.81 96.613 A 2.463 2.463 0 0 0 192.507 97.033 Q 192.09 97.76 192.09 98.855 A 4.46 4.46 0 0 0 192.146 99.578 A 3.298 3.298 0 0 0 192.423 100.478 Q 192.756 101.17 193.368 101.541 A 2.483 2.483 0 0 0 193.938 101.794 A 2.863 2.863 0 0 0 194.77 101.912 A 3.462 3.462 0 0 0 195.375 101.861 A 2.377 2.377 0 0 0 196.773 101.103 Z M 193.014 98.855 A 4.515 4.515 0 0 0 193.057 99.5 Q 193.104 99.828 193.204 100.093 A 1.871 1.871 0 0 0 193.465 100.574 A 1.461 1.461 0 0 0 194.417 101.135 A 2.214 2.214 0 0 0 194.791 101.165 A 2.071 2.071 0 0 0 195.338 101.097 A 1.441 1.441 0 0 0 196.121 100.577 A 1.914 1.914 0 0 0 196.419 99.996 Q 196.575 99.52 196.575 98.855 Q 196.575 98.135 196.388 97.637 A 1.836 1.836 0 0 0 196.121 97.15 A 1.467 1.467 0 0 0 195.209 96.606 A 2.249 2.249 0 0 0 194.781 96.567 A 2.122 2.122 0 0 0 194.252 96.629 A 1.42 1.42 0 0 0 193.459 97.142 A 1.843 1.843 0 0 0 193.173 97.696 Q 193.014 98.175 193.014 98.855 Z M 199.953 98.657 L 199.953 98.855 A 5.895 5.895 0 0 0 199.982 99.465 Q 200.046 100.08 200.251 100.454 A 1.345 1.345 0 0 0 200.367 100.631 Q 200.78 101.165 201.693 101.165 A 1.502 1.502 0 0 0 202.277 101.055 Q 202.614 100.915 202.855 100.594 A 1.777 1.777 0 0 0 202.888 100.547 Q 203.23 100.06 203.302 99.282 A 4.75 4.75 0 0 0 203.321 98.845 A 4.499 4.499 0 0 0 203.279 98.207 Q 203.186 97.56 202.888 97.156 A 1.387 1.387 0 0 0 201.874 96.578 A 1.918 1.918 0 0 0 201.672 96.567 Q 200.769 96.567 200.367 97.067 Q 199.99 97.535 199.956 98.52 A 5.674 5.674 0 0 0 199.953 98.657 Z"
       id="top_labelLayer"
       stroke="#777777"
       fill="#777777"
       style="stroke:#777777;fill:#777777"
       vector-effect="non-scaling-stroke" />
    <path
       d="M 0 0 L 0 21.156 L 4.5 21.156 L 4.5 40.844 L 0 40.844 L 0 60.531 L 0 62 L 15.469 62 L 15.469 57.5 L 35.156 57.5 L 35.156 62 L 54.844 62 L 54.844 57.5 L 74.531 57.5 L 74.531 62 L 90 62 L 90 40.844 L 85.5 40.844 L 85.5 21.156 L 90 21.156 L 90 1.469 L 90 0 L 74.531 0 L 74.531 4.5 L 54.844 4.5 L 54.844 0 L 35.156 0 L 35.156 4.5 L 15.469 4.5 L 15.469 0 L 0 0 Z"
       id="back_outsideCutPath"
       stroke="#FF0000"
       stroke-width="0.1"
       style="stroke:#FF0000;stroke-width:0.1"
       vector-effect="non-scaling-stroke" />
    <path
       d="M 53.489 32.253 L 53.537 32.253 A 5.95 5.95 0 0 1 53.684 32.054 Q 53.854 31.834 54.095 31.553 A 21.595 21.595 0 0 1 54.33 31.285 L 56.474 29.014 L 57.666 29.014 L 54.978 31.842 L 57.854 35.65 L 56.637 35.65 L 54.294 32.514 L 53.537 33.168 L 53.537 35.65 L 52.544 35.65 L 52.544 26.229 L 53.537 26.229 L 53.537 31.224 Q 53.537 31.557 53.489 32.253 Z M 33.151 34.796 L 33.078 34.796 L 32.866 35.65 L 32.146 35.65 L 32.146 26.229 L 33.151 26.229 L 33.151 28.518 A 20.955 20.955 0 0 1 33.14 29.225 Q 33.128 29.56 33.106 29.858 A 12.525 12.525 0 0 1 33.103 29.898 L 33.151 29.898 A 2.285 2.285 0 0 1 34.819 28.929 A 3.433 3.433 0 0 1 35.234 28.905 A 3.072 3.072 0 0 1 36.098 29.02 A 2.3 2.3 0 0 1 37.265 29.798 Q 37.989 30.691 37.989 32.326 A 5.893 5.893 0 0 1 37.911 33.317 Q 37.82 33.846 37.625 34.27 A 2.825 2.825 0 0 1 37.259 34.866 A 2.379 2.379 0 0 1 35.568 35.755 A 3.409 3.409 0 0 1 35.234 35.771 A 3.049 3.049 0 0 1 34.468 35.678 A 2.653 2.653 0 0 1 34.05 35.532 A 2.226 2.226 0 0 1 33.151 34.796 Z M 44.57 35.65 L 43.825 35.65 L 43.626 34.705 L 43.577 34.705 A 4.167 4.167 0 0 1 43.24 35.083 Q 43.059 35.261 42.878 35.385 A 1.852 1.852 0 0 1 42.587 35.55 Q 42.18 35.732 41.607 35.764 A 4.523 4.523 0 0 1 41.355 35.771 Q 40.566 35.771 40.049 35.446 A 1.731 1.731 0 0 1 39.808 35.262 A 1.652 1.652 0 0 1 39.31 34.391 A 2.529 2.529 0 0 1 39.248 33.815 Q 39.248 31.87 42.259 31.717 A 9.818 9.818 0 0 1 42.463 31.708 L 43.589 31.672 L 43.589 31.26 A 2.887 2.887 0 0 0 43.561 30.843 Q 43.492 30.372 43.253 30.107 A 1.02 1.02 0 0 0 42.835 29.834 Q 42.561 29.735 42.179 29.735 Q 41.349 29.735 40.302 30.243 L 39.993 29.474 Q 40.483 29.208 41.067 29.056 A 4.655 4.655 0 0 1 42.239 28.905 Q 43.426 28.905 43.998 29.432 A 1.592 1.592 0 0 1 44.409 30.065 Q 44.505 30.325 44.543 30.649 A 3.955 3.955 0 0 1 44.57 31.121 L 44.57 35.65 Z M 51.067 29.238 L 50.758 30.092 A 4.471 4.471 0 0 0 50.273 29.93 A 5.34 5.34 0 0 0 50.031 29.871 A 4.152 4.152 0 0 0 49.716 29.812 Q 49.562 29.79 49.425 29.785 A 2.228 2.228 0 0 0 49.335 29.783 A 2.229 2.229 0 0 0 48.43 29.953 Q 47.481 30.371 47.338 31.818 A 5.554 5.554 0 0 0 47.313 32.362 A 4.868 4.868 0 0 0 47.361 33.071 Q 47.414 33.43 47.525 33.722 A 2.085 2.085 0 0 0 47.806 34.239 A 1.596 1.596 0 0 0 48.841 34.857 A 2.432 2.432 0 0 0 49.269 34.893 Q 50.098 34.893 50.97 34.536 L 50.97 35.426 Q 50.304 35.771 49.293 35.771 A 3.756 3.756 0 0 1 48.379 35.666 A 2.547 2.547 0 0 1 47.062 34.884 A 2.907 2.907 0 0 1 46.457 33.774 Q 46.324 33.333 46.286 32.803 A 6.077 6.077 0 0 1 46.271 32.374 A 5.546 5.546 0 0 1 46.357 31.366 Q 46.462 30.803 46.692 30.36 A 2.771 2.771 0 0 1 47.074 29.801 A 2.602 2.602 0 0 1 48.499 28.982 A 3.945 3.945 0 0 1 49.359 28.893 A 4.536 4.536 0 0 1 50.316 28.996 A 5.017 5.017 0 0 1 50.595 29.064 Q 50.875 29.141 51.061 29.235 A 1.507 1.507 0 0 1 51.067 29.238 Z M 33.993 29.996 A 1.337 1.337 0 0 0 33.605 30.337 A 1.721 1.721 0 0 0 33.356 30.811 Q 33.188 31.282 33.158 31.998 A 7.744 7.744 0 0 0 33.151 32.326 A 6.645 6.645 0 0 0 33.184 33.013 Q 33.275 33.885 33.617 34.327 Q 34.035 34.867 34.906 34.923 A 3.232 3.232 0 0 0 35.113 34.929 A 2.004 2.004 0 0 0 35.682 34.853 A 1.445 1.445 0 0 0 36.493 34.254 A 2.307 2.307 0 0 0 36.779 33.637 Q 36.947 33.085 36.947 32.314 Q 36.947 31.018 36.493 30.382 Q 36.039 29.747 35.088 29.747 Q 34.419 29.747 33.993 29.996 Z M 43.565 32.986 L 43.565 32.386 L 42.56 32.429 Q 41.559 32.464 41.024 32.7 A 1.544 1.544 0 0 0 40.831 32.801 A 1.072 1.072 0 0 0 40.32 33.579 A 1.587 1.587 0 0 0 40.302 33.827 A 1.436 1.436 0 0 0 40.337 34.157 Q 40.41 34.466 40.632 34.657 A 1.094 1.094 0 0 0 41.041 34.875 Q 41.204 34.923 41.398 34.936 A 2.26 2.26 0 0 0 41.555 34.942 Q 42.493 34.942 43.029 34.427 A 1.683 1.683 0 0 0 43.499 33.586 Q 43.564 33.316 43.565 32.996 A 3.146 3.146 0 0 0 43.565 32.986 Z"
       id="back_labelLayer"
       stroke="#777777"
       fill="#777777"
       style="stroke:#777777;fill:#777777"
       vector-effect="non-scaling-stroke" />
    <path
       d="M 97.5 0 L 97.5 21.156 L 93 21.156 L 93 40.844 L 97.5 40.844 L 97.5 60.531 L 97.5 62 L 110.656 62 L 110.656 57.5 L 130.344 57.5 L 130.344 62 L 143.5 62 L 143.5 40.844 L 148 40.844 L 148 21.156 L 143.5 21.156 L 143.5 1.469 L 143.5 0 L 130.344 0 L 130.344 4.5 L 110.656 4.5 L 110.656 0 L 97.5 0 Z"
       id="right_outsideCutPath"
       stroke="#FF0000"
       stroke-width="0.1"
       style="stroke:#FF0000;stroke-width:0.1"
       vector-effect="non-scaling-stroke" />
    <path
       d="M 127.34 33.857 L 126.448 33.857 L 126.448 30.049 Q 126.448 29.59 126.315 29.28 A 1.061 1.061 0 0 0 126.121 28.975 Q 125.856 28.688 125.347 28.633 A 2.364 2.364 0 0 0 125.095 28.621 A 2.698 2.698 0 0 0 124.591 28.664 Q 124.04 28.769 123.739 29.125 Q 123.348 29.587 123.315 30.587 A 5.754 5.754 0 0 0 123.312 30.78 L 123.312 33.857 L 122.42 33.857 L 122.42 25.5 L 123.312 25.5 L 123.312 28.03 Q 123.312 28.358 123.29 28.606 A 3.487 3.487 0 0 1 123.269 28.787 L 123.323 28.787 A 1.781 1.781 0 0 1 123.947 28.186 A 2.176 2.176 0 0 1 124.072 28.118 A 2.289 2.289 0 0 1 124.823 27.896 A 2.894 2.894 0 0 1 125.181 27.874 A 3.617 3.617 0 0 1 125.789 27.922 Q 126.425 28.03 126.8 28.387 Q 127.22 28.785 127.313 29.548 A 3.855 3.855 0 0 1 127.34 30.017 L 127.34 33.857 Z M 119.176 27.971 L 121.212 27.971 L 121.212 28.535 L 120.121 28.664 A 1.449 1.449 0 0 1 120.247 28.85 Q 120.323 28.984 120.39 29.155 A 1.715 1.715 0 0 1 120.491 29.565 A 2.203 2.203 0 0 1 120.508 29.84 A 2.044 2.044 0 0 1 120.414 30.473 A 1.653 1.653 0 0 1 119.917 31.22 A 1.977 1.977 0 0 1 119.139 31.63 Q 118.845 31.713 118.495 31.731 A 3.873 3.873 0 0 1 118.295 31.736 A 2.865 2.865 0 0 1 117.964 31.717 A 2.42 2.42 0 0 1 117.801 31.693 A 1.587 1.587 0 0 0 117.545 31.858 Q 117.413 31.965 117.337 32.087 A 0.671 0.671 0 0 0 117.232 32.45 A 0.462 0.462 0 0 0 117.255 32.601 Q 117.3 32.732 117.43 32.807 A 0.625 0.625 0 0 0 117.569 32.864 Q 117.714 32.907 117.935 32.918 A 3.392 3.392 0 0 0 118.113 32.923 L 119.155 32.923 Q 119.792 32.923 120.233 33.102 A 1.611 1.611 0 0 1 120.624 33.326 A 1.304 1.304 0 0 1 121.108 34.157 A 1.959 1.959 0 0 1 121.136 34.497 A 1.93 1.93 0 0 1 121.026 35.164 Q 120.848 35.651 120.383 35.967 A 2.12 2.12 0 0 1 120.352 35.987 Q 119.806 36.345 118.909 36.453 A 7.067 7.067 0 0 1 118.064 36.5 A 4.995 4.995 0 0 1 117.394 36.458 Q 117.054 36.412 116.776 36.315 A 2.072 2.072 0 0 1 116.284 36.07 Q 115.658 35.641 115.658 34.856 A 1.363 1.363 0 0 1 116.002 33.927 A 1.557 1.557 0 0 1 116.536 33.538 A 2.207 2.207 0 0 1 116.969 33.395 Q 116.743 33.293 116.59 33.079 Q 116.437 32.864 116.437 32.579 A 1.02 1.02 0 0 1 116.488 32.251 A 0.904 0.904 0 0 1 116.609 32.015 A 1.276 1.276 0 0 1 116.777 31.825 Q 116.867 31.741 116.982 31.659 A 2.801 2.801 0 0 1 117.151 31.548 A 1.563 1.563 0 0 1 116.472 31.004 A 1.937 1.937 0 0 1 116.407 30.909 A 1.843 1.843 0 0 1 116.124 30.02 A 2.25 2.25 0 0 1 116.12 29.877 A 2.576 2.576 0 0 1 116.188 29.268 A 1.695 1.695 0 0 1 116.7 28.387 A 1.893 1.893 0 0 1 117.427 27.986 Q 117.715 27.898 118.063 27.873 A 3.938 3.938 0 0 1 118.344 27.863 A 3.418 3.418 0 0 1 118.796 27.892 A 2.603 2.603 0 0 1 119.176 27.971 Z M 131.879 33.122 L 131.879 33.804 A 0.877 0.877 0 0 1 131.775 33.845 Q 131.646 33.888 131.452 33.919 Q 131.188 33.962 130.974 33.965 A 2.287 2.287 0 0 1 130.944 33.965 Q 129.236 33.965 129.236 32.165 L 129.236 28.664 L 128.393 28.664 L 128.393 28.234 L 129.236 27.863 L 129.612 26.606 L 130.128 26.606 L 130.128 27.971 L 131.836 27.971 L 131.836 28.664 L 130.128 28.664 L 130.128 32.128 A 1.795 1.795 0 0 0 130.154 32.443 Q 130.209 32.751 130.38 32.944 Q 130.633 33.229 131.073 33.229 A 2.928 2.928 0 0 0 131.502 33.198 A 2.699 2.699 0 0 0 131.53 33.194 A 4.823 4.823 0 0 0 131.658 33.172 Q 131.781 33.149 131.867 33.125 A 1.341 1.341 0 0 0 131.879 33.122 Z M 112.51 27.928 L 112.387 28.755 Q 112.083 28.688 111.838 28.677 A 2.091 2.091 0 0 0 111.742 28.674 A 1.545 1.545 0 0 0 110.601 29.167 A 2.114 2.114 0 0 0 110.521 29.254 A 2.036 2.036 0 0 0 110.029 30.398 A 2.706 2.706 0 0 0 110.013 30.699 L 110.013 33.857 L 109.121 33.857 L 109.121 27.971 L 109.857 27.971 L 109.959 29.061 L 110.002 29.061 A 3.011 3.011 0 0 1 110.339 28.58 A 2.3 2.3 0 0 1 110.792 28.175 Q 111.254 27.863 111.807 27.863 A 4.093 4.093 0 0 1 112.173 27.879 A 2.987 2.987 0 0 1 112.51 27.928 Z M 114.503 27.971 L 114.503 33.857 L 113.612 33.857 L 113.612 27.971 L 114.503 27.971 Z M 118.87 33.723 L 117.801 33.723 A 2.05 2.05 0 0 0 117.432 33.754 Q 117.222 33.793 117.056 33.879 A 1.044 1.044 0 0 0 116.856 34.013 A 0.94 0.94 0 0 0 116.547 34.546 A 1.427 1.427 0 0 0 116.517 34.846 A 0.895 0.895 0 0 0 116.576 35.178 Q 116.672 35.418 116.92 35.571 A 1.428 1.428 0 0 0 117.271 35.721 Q 117.602 35.817 118.068 35.818 A 4.479 4.479 0 0 0 118.075 35.818 A 5.994 5.994 0 0 0 118.66 35.791 Q 119.247 35.733 119.615 35.55 A 1.481 1.481 0 0 0 119.737 35.482 A 1.301 1.301 0 0 0 120.039 35.23 A 0.975 0.975 0 0 0 120.277 34.572 A 1.206 1.206 0 0 0 120.255 34.332 Q 120.196 34.043 119.982 33.908 A 0.846 0.846 0 0 0 119.781 33.821 Q 119.567 33.755 119.23 33.734 A 5.673 5.673 0 0 0 118.87 33.723 Z M 117.001 29.856 A 1.74 1.74 0 0 0 117.037 30.221 Q 117.085 30.447 117.199 30.617 A 0.954 0.954 0 0 0 117.35 30.79 A 1.152 1.152 0 0 0 117.814 31.042 Q 117.99 31.093 118.201 31.104 A 2.296 2.296 0 0 0 118.322 31.107 A 1.942 1.942 0 0 0 118.831 31.047 Q 119.412 30.888 119.569 30.317 A 1.806 1.806 0 0 0 119.627 29.84 Q 119.627 28.787 118.795 28.57 A 1.939 1.939 0 0 0 118.306 28.513 A 1.871 1.871 0 0 0 117.925 28.55 Q 117.691 28.598 117.513 28.712 A 1.026 1.026 0 0 0 117.339 28.852 A 1.07 1.07 0 0 0 117.08 29.288 Q 117.001 29.533 117.001 29.856 Z M 113.687 25.927 A 0.417 0.417 0 0 0 113.595 26.058 Q 113.536 26.185 113.536 26.375 A 1.053 1.053 0 0 0 113.541 26.476 Q 113.55 26.566 113.575 26.64 A 0.46 0.46 0 0 0 113.687 26.824 A 0.5 0.5 0 0 0 113.868 26.939 A 0.566 0.566 0 0 0 114.063 26.972 A 0.52 0.52 0 0 0 114.433 26.824 A 0.435 0.435 0 0 0 114.518 26.711 Q 114.557 26.638 114.575 26.545 A 0.922 0.922 0 0 0 114.589 26.375 Q 114.589 26.229 114.552 26.119 A 0.45 0.45 0 0 0 114.433 25.93 Q 114.278 25.785 114.063 25.785 Q 113.837 25.785 113.687 25.927 Z"
       id="right_labelLayer"
       stroke="#777777"
       fill="#777777"
       style="stroke:#777777;fill:#777777"
       vector-effect="non-scaling-stroke" />
    <path
       d="M 155.5 18.5 L 155.5 31.656 L 151 31.656 L 151 51.344 L 155.5 51.344 L 155.5 64.5 L 166.469 64.5 L 166.469 69 L 186.156 69 L 186.156 64.5 L 205.844 64.5 L 205.844 69 L 225.531 69 L 225.531 64.5 L 236.5 64.5 L 236.5 51.344 L 241 51.344 L 241 31.656 L 236.5 31.656 L 236.5 18.5 L 225.531 18.5 L 225.531 14 L 205.844 14 L 205.844 18.5 L 186.156 18.5 L 186.156 14 L 166.469 14 L 166.469 18.5 L 155.5 18.5 Z"
       id="bottom_outsideCutPath"
       stroke="#FF0000"
       stroke-width="0.1"
       style="stroke:#FF0000;stroke-width:0.1"
       vector-effect="non-scaling-stroke" />
    <path
       d="M 214.095 45.625 L 213.204 45.625 L 213.204 41.795 A 2.63 2.63 0 0 0 213.177 41.409 Q 213.114 40.987 212.903 40.74 A 0.938 0.938 0 0 0 212.467 40.458 Q 212.25 40.388 211.968 40.388 Q 211.384 40.388 211.015 40.623 A 1.181 1.181 0 0 0 210.738 40.866 Q 210.343 41.342 210.341 42.329 A 4.982 4.982 0 0 0 210.341 42.338 L 210.341 45.625 L 209.449 45.625 L 209.449 41.795 A 2.63 2.63 0 0 0 209.423 41.409 Q 209.36 40.987 209.148 40.74 A 0.935 0.935 0 0 0 208.718 40.46 Q 208.563 40.409 208.374 40.394 A 2.088 2.088 0 0 0 208.208 40.388 A 2.214 2.214 0 0 0 207.75 40.432 Q 207.468 40.492 207.257 40.633 A 1.169 1.169 0 0 0 206.981 40.89 A 1.495 1.495 0 0 0 206.759 41.311 Q 206.592 41.786 206.592 42.536 L 206.592 45.625 L 205.7 45.625 L 205.7 39.738 L 206.425 39.738 L 206.57 40.544 L 206.613 40.544 A 1.752 1.752 0 0 1 207.325 39.872 A 2.117 2.117 0 0 1 208.161 39.638 A 2.557 2.557 0 0 1 208.353 39.631 Q 209.208 39.631 209.697 40.014 A 1.522 1.522 0 0 1 210.158 40.63 L 210.201 40.63 A 1.862 1.862 0 0 1 210.902 39.934 A 2.236 2.236 0 0 1 210.964 39.899 A 2.257 2.257 0 0 1 211.792 39.648 A 2.814 2.814 0 0 1 212.103 39.631 Q 213.102 39.631 213.598 40.144 A 1.535 1.535 0 0 1 213.928 40.683 Q 214.017 40.921 214.058 41.217 A 4.089 4.089 0 0 1 214.095 41.785 L 214.095 45.625 Z M 178.796 44.868 L 178.732 44.868 L 178.544 45.625 L 177.905 45.625 L 177.905 37.267 L 178.796 37.267 L 178.796 39.298 A 18.589 18.589 0 0 1 178.786 39.926 Q 178.776 40.223 178.756 40.487 A 11.098 11.098 0 0 1 178.753 40.522 L 178.796 40.522 A 2.027 2.027 0 0 1 180.276 39.663 A 3.045 3.045 0 0 1 180.644 39.641 A 2.725 2.725 0 0 1 181.411 39.744 A 2.04 2.04 0 0 1 182.446 40.434 A 2.627 2.627 0 0 1 182.907 41.321 Q 183.088 41.906 183.088 42.676 A 5.228 5.228 0 0 1 183.019 43.556 Q 182.938 44.024 182.766 44.4 A 2.506 2.506 0 0 1 182.441 44.929 A 2.111 2.111 0 0 1 180.94 45.718 A 3.024 3.024 0 0 1 180.644 45.732 A 2.704 2.704 0 0 1 179.964 45.649 A 2.353 2.353 0 0 1 179.594 45.52 Q 179.119 45.308 178.796 44.868 Z M 193.997 44.889 L 193.997 45.571 A 0.877 0.877 0 0 1 193.893 45.612 Q 193.763 45.655 193.57 45.687 Q 193.306 45.729 193.092 45.732 A 2.287 2.287 0 0 1 193.062 45.732 Q 191.354 45.732 191.354 43.933 L 191.354 40.431 L 190.511 40.431 L 190.511 40.001 L 191.354 39.631 L 191.73 38.374 L 192.246 38.374 L 192.246 39.738 L 193.954 39.738 L 193.954 40.431 L 192.246 40.431 L 192.246 43.895 A 1.795 1.795 0 0 0 192.271 44.211 Q 192.326 44.518 192.498 44.712 Q 192.75 44.996 193.191 44.996 A 2.928 2.928 0 0 0 193.62 44.966 A 2.699 2.699 0 0 0 193.647 44.962 A 4.823 4.823 0 0 0 193.776 44.939 Q 193.899 44.917 193.985 44.892 A 1.341 1.341 0 0 0 193.997 44.889 Z M 197.88 44.889 L 197.88 45.571 A 0.877 0.877 0 0 1 197.776 45.612 Q 197.647 45.655 197.453 45.687 Q 197.19 45.729 196.975 45.732 A 2.287 2.287 0 0 1 196.945 45.732 Q 195.237 45.732 195.237 43.933 L 195.237 40.431 L 194.394 40.431 L 194.394 40.001 L 195.237 39.631 L 195.613 38.374 L 196.129 38.374 L 196.129 39.738 L 197.837 39.738 L 197.837 40.431 L 196.129 40.431 L 196.129 43.895 A 1.795 1.795 0 0 0 196.155 44.211 Q 196.21 44.518 196.381 44.712 Q 196.634 44.996 197.074 44.996 A 2.928 2.928 0 0 0 197.503 44.966 A 2.699 2.699 0 0 0 197.531 44.962 A 4.823 4.823 0 0 0 197.659 44.939 Q 197.782 44.917 197.868 44.892 A 1.341 1.341 0 0 0 197.88 44.889 Z M 189.001 44.924 A 2.487 2.487 0 0 0 189.298 44.517 Q 189.727 43.783 189.727 42.676 A 5.233 5.233 0 0 0 189.725 42.535 Q 189.711 42.044 189.605 41.628 A 2.776 2.776 0 0 0 188.999 40.452 A 2.334 2.334 0 0 0 187.915 39.754 A 2.996 2.996 0 0 0 187.036 39.631 A 3.463 3.463 0 0 0 186.414 39.684 A 2.358 2.358 0 0 0 185.038 40.434 A 2.463 2.463 0 0 0 184.735 40.853 Q 184.318 41.58 184.318 42.676 A 4.46 4.46 0 0 0 184.374 43.399 A 3.298 3.298 0 0 0 184.651 44.298 Q 184.984 44.991 185.596 45.362 A 2.483 2.483 0 0 0 186.166 45.615 A 2.863 2.863 0 0 0 186.998 45.732 A 3.462 3.462 0 0 0 187.603 45.682 A 2.377 2.377 0 0 0 189.001 44.924 Z M 203.412 44.924 A 2.487 2.487 0 0 0 203.708 44.517 Q 204.137 43.783 204.137 42.676 A 5.233 5.233 0 0 0 204.135 42.535 Q 204.122 42.044 204.016 41.628 A 2.776 2.776 0 0 0 203.409 40.452 A 2.334 2.334 0 0 0 202.326 39.754 A 2.996 2.996 0 0 0 201.446 39.631 A 3.463 3.463 0 0 0 200.824 39.684 A 2.358 2.358 0 0 0 199.448 40.434 A 2.463 2.463 0 0 0 199.146 40.853 Q 198.728 41.58 198.728 42.676 A 4.46 4.46 0 0 0 198.785 43.399 A 3.298 3.298 0 0 0 199.061 44.298 Q 199.395 44.991 200.007 45.362 A 2.483 2.483 0 0 0 200.577 45.615 A 2.863 2.863 0 0 0 201.409 45.732 A 3.462 3.462 0 0 0 202.013 45.682 A 2.377 2.377 0 0 0 203.412 44.924 Z M 185.242 42.676 A 4.515 4.515 0 0 0 185.285 43.321 Q 185.332 43.649 185.432 43.914 A 1.871 1.871 0 0 0 185.693 44.395 A 1.461 1.461 0 0 0 186.645 44.955 A 2.214 2.214 0 0 0 187.02 44.986 A 2.071 2.071 0 0 0 187.566 44.918 A 1.441 1.441 0 0 0 188.349 44.398 A 1.914 1.914 0 0 0 188.647 43.817 Q 188.803 43.34 188.803 42.676 Q 188.803 41.956 188.616 41.458 A 1.836 1.836 0 0 0 188.349 40.971 A 1.467 1.467 0 0 0 187.437 40.427 A 2.249 2.249 0 0 0 187.009 40.388 A 2.122 2.122 0 0 0 186.48 40.45 A 1.42 1.42 0 0 0 185.687 40.963 A 1.843 1.843 0 0 0 185.401 41.517 Q 185.242 41.996 185.242 42.676 Z M 199.652 42.676 A 4.515 4.515 0 0 0 199.695 43.321 Q 199.743 43.649 199.842 43.914 A 1.871 1.871 0 0 0 200.103 44.395 A 1.461 1.461 0 0 0 201.055 44.955 A 2.214 2.214 0 0 0 201.43 44.986 A 2.071 2.071 0 0 0 201.977 44.918 A 1.441 1.441 0 0 0 202.759 44.398 A 1.914 1.914 0 0 0 203.058 43.817 Q 203.213 43.34 203.213 42.676 Q 203.213 41.956 203.027 41.458 A 1.836 1.836 0 0 0 202.759 40.971 A 1.467 1.467 0 0 0 201.848 40.427 A 2.249 2.249 0 0 0 201.419 40.388 A 2.122 2.122 0 0 0 200.891 40.45 A 1.42 1.42 0 0 0 200.098 40.963 A 1.843 1.843 0 0 0 199.812 41.517 Q 199.652 41.996 199.652 42.676 Z M 180.515 40.388 A 2.505 2.505 0 0 0 180.03 40.432 Q 179.753 40.486 179.544 40.609 A 1.186 1.186 0 0 0 179.199 40.912 Q 178.845 41.372 178.802 42.385 A 6.87 6.87 0 0 0 178.796 42.676 A 5.895 5.895 0 0 0 178.826 43.285 Q 178.89 43.9 179.095 44.274 A 1.345 1.345 0 0 0 179.21 44.451 Q 179.624 44.986 180.537 44.986 A 1.777 1.777 0 0 0 181.041 44.918 A 1.282 1.282 0 0 0 181.761 44.387 Q 182.164 43.788 182.164 42.665 Q 182.164 41.516 181.761 40.952 A 1.3 1.3 0 0 0 180.933 40.428 A 2.062 2.062 0 0 0 180.515 40.388 Z"
       id="bottom_labelLayer"
       stroke="#777777"
       fill="#777777"
       style="stroke:#777777;fill:#777777"
       vector-effect="non-scaling-stroke" />
  </g>
  <rect
     style="fill:none;stroke:#000000;stroke-width:0.545401"
     id="rect177"
     width="70.954597"
     height="23.954599"
     x="8.9727001"
     y="76.472702" />
  <rect
     style="fill:none;stroke:#000000;stroke-width:0.258234"
     id="rect981"
     width="12.891766"
     height="9.5417662"
     x="8.8291178"
     y="106.12911" />
  <rect
     style="fill:none;stroke:#000000;stroke-width:0.284525"
     id="rect1001"
     width="9.5654755"
     height="9.5154753"
     x="26.292263"
     y="106.14226" />
  <rect
     style="fill:none;stroke:#000000;stroke-width:0.284525"
     id="rect1001-3"
     width="9.5654755"
     height="9.5154753"
     x="40.302261"
     y="106.14227" />
  <circle
     style="fill:none;stroke:#000000;stroke-width:0.254685"
     id="path1130"
     cx="72.250748"
     cy="112.62499"
     r="3.3226576" />
  <rect
     style="fill:none;stroke:#000000;stroke-width:0.145347"
     id="rect2275"
     width="3.6546533"
     height="7.4546528"
     x="119.27267"
     y="15.972673" />
  <circle
     style="fill:none;stroke:#000000;stroke-width:0.323759"
     id="path2351"
     cx="130.5"
     cy="32.5"
     r="2.8381207" />
  <rect
     style="fill:none;stroke:#000000;stroke-width:0.361931"
     id="rect2473"
     width="8.2380686"
     height="10.138069"
     x="116.98463"
     y="14.589241" />
  <circle
     style="fill:none;stroke:#000000;stroke-width:0.250952"
     id="path2475"
     cx="130.48"
     cy="32.506176"
     r="5.8745241" />
  <circle
     style="fill:none;stroke:#000000;stroke-width:0.548491"
     id="path2529"
     cx="119.8"
     cy="43.68288"
     r="4.7257543" />
  <rect
     style="fill:none;stroke:#000000;stroke-width:0.498059"
     id="rect2557"
     width="19.901941"
     height="12.251941"
     x="167.74902"
     y="81.999031" />
</svg>
